<?xml version="1.0" encoding="utf-8" standalone="no"?>
<!DOCTYPE svg PUBLIC "-//W3C//DTD SVG 1.1//EN"
  "http://www.w3.org/Graphics/SVG/1.1/DTD/svg11.dtd">
<svg xmlns:xlink="http://www.w3.org/1999/xlink" width="857.166875pt" height="424.343917pt" viewBox="0 0 857.166875 424.343917" xmlns="http://www.w3.org/2000/svg" version="1.1">
 <metadata>
  <rdf:RDF xmlns:dc="http://purl.org/dc/elements/1.1/" xmlns:cc="http://creativecommons.org/ns#" xmlns:rdf="http://www.w3.org/1999/02/22-rdf-syntax-ns#">
   <cc:Work>
    <dc:type rdf:resource="http://purl.org/dc/dcmitype/StillImage"/>
    <dc:date>2026-04-21T21:54:23.211760</dc:date>
    <dc:format>image/svg+xml</dc:format>
    <dc:creator>
     <cc:Agent>
      <dc:title>Matplotlib v3.10.8, https://matplotlib.org/</dc:title>
     </cc:Agent>
    </dc:creator>
   </cc:Work>
  </rdf:RDF>
 </metadata>
 <defs>
  <style type="text/css">*{stroke-linejoin: round; stroke-linecap: butt}</style>
 </defs>
 <g id="figure_1">
  <g id="patch_1">
   <path d="M 0 424.343917 
L 857.166875 424.343917 
L 857.166875 0 
L 0 0 
z
" style="fill: #ffffff"/>
  </g>
  <g id="axes_1">
   <g id="patch_2">
    <path d="M 40.583125 362.755326 
L 849.966875 362.755326 
L 849.966875 23.391562 
L 40.583125 23.391562 
z
" style="fill: #ffffff"/>
   </g>
   <g id="matplotlib.axis_1">
    <g id="xtick_1">
     <g id="line2d_1">
      <path d="M 77.373295 362.755326 
L 77.373295 23.391562 
" clip-path="url(#pe5357325ff)" style="fill: none; stroke: #cccccc; stroke-width: 0.8; stroke-linecap: round"/>
     </g>
     <g id="text_1">
      <!-- 2018-01 -->
      <g style="fill: #262626" transform="translate(66.227525 400.764168) rotate(-45) scale(0.1 -0.1)">
       <defs>
        <path id="ArialMT-32" d="M 3222 541 
L 3222 0 
L 194 0 
Q 188 203 259 391 
Q 375 700 629 1000 
Q 884 1300 1366 1694 
Q 2113 2306 2375 2664 
Q 2638 3022 2638 3341 
Q 2638 3675 2398 3904 
Q 2159 4134 1775 4134 
Q 1369 4134 1125 3890 
Q 881 3647 878 3216 
L 300 3275 
Q 359 3922 746 4261 
Q 1134 4600 1788 4600 
Q 2447 4600 2831 4234 
Q 3216 3869 3216 3328 
Q 3216 3053 3103 2787 
Q 2991 2522 2730 2228 
Q 2469 1934 1863 1422 
Q 1356 997 1212 845 
Q 1069 694 975 541 
L 3222 541 
z
" transform="scale(0.015625)"/>
        <path id="ArialMT-30" d="M 266 2259 
Q 266 3072 433 3567 
Q 600 4063 929 4331 
Q 1259 4600 1759 4600 
Q 2128 4600 2406 4451 
Q 2684 4303 2865 4023 
Q 3047 3744 3150 3342 
Q 3253 2941 3253 2259 
Q 3253 1453 3087 958 
Q 2922 463 2592 192 
Q 2263 -78 1759 -78 
Q 1097 -78 719 397 
Q 266 969 266 2259 
z
M 844 2259 
Q 844 1131 1108 757 
Q 1372 384 1759 384 
Q 2147 384 2411 759 
Q 2675 1134 2675 2259 
Q 2675 3391 2411 3762 
Q 2147 4134 1753 4134 
Q 1366 4134 1134 3806 
Q 844 3388 844 2259 
z
" transform="scale(0.015625)"/>
        <path id="ArialMT-31" d="M 2384 0 
L 1822 0 
L 1822 3584 
Q 1619 3391 1289 3197 
Q 959 3003 697 2906 
L 697 3450 
Q 1169 3672 1522 3987 
Q 1875 4303 2022 4600 
L 2384 4600 
L 2384 0 
z
" transform="scale(0.015625)"/>
        <path id="ArialMT-38" d="M 1131 2484 
Q 781 2613 612 2850 
Q 444 3088 444 3419 
Q 444 3919 803 4259 
Q 1163 4600 1759 4600 
Q 2359 4600 2725 4251 
Q 3091 3903 3091 3403 
Q 3091 3084 2923 2848 
Q 2756 2613 2416 2484 
Q 2838 2347 3058 2040 
Q 3278 1734 3278 1309 
Q 3278 722 2862 322 
Q 2447 -78 1769 -78 
Q 1091 -78 675 323 
Q 259 725 259 1325 
Q 259 1772 486 2073 
Q 713 2375 1131 2484 
z
M 1019 3438 
Q 1019 3113 1228 2906 
Q 1438 2700 1772 2700 
Q 2097 2700 2305 2904 
Q 2513 3109 2513 3406 
Q 2513 3716 2298 3927 
Q 2084 4138 1766 4138 
Q 1444 4138 1231 3931 
Q 1019 3725 1019 3438 
z
M 838 1322 
Q 838 1081 952 856 
Q 1066 631 1291 507 
Q 1516 384 1775 384 
Q 2178 384 2440 643 
Q 2703 903 2703 1303 
Q 2703 1709 2433 1975 
Q 2163 2241 1756 2241 
Q 1359 2241 1098 1978 
Q 838 1716 838 1322 
z
" transform="scale(0.015625)"/>
        <path id="ArialMT-2d" d="M 203 1375 
L 203 1941 
L 1931 1941 
L 1931 1375 
L 203 1375 
z
" transform="scale(0.015625)"/>
       </defs>
       <use xlink:href="#ArialMT-32"/>
       <use xlink:href="#ArialMT-30" transform="translate(55.615234 0)"/>
       <use xlink:href="#ArialMT-31" transform="translate(111.230469 0)"/>
       <use xlink:href="#ArialMT-38" transform="translate(166.845703 0)"/>
       <use xlink:href="#ArialMT-2d" transform="translate(222.460938 0)"/>
       <use xlink:href="#ArialMT-30" transform="translate(255.761719 0)"/>
       <use xlink:href="#ArialMT-31" transform="translate(311.376953 0)"/>
      </g>
     </g>
    </g>
    <g id="xtick_2">
     <g id="line2d_2">
      <path d="M 182.446943 362.755326 
L 182.446943 23.391562 
" clip-path="url(#pe5357325ff)" style="fill: none; stroke: #cccccc; stroke-width: 0.8; stroke-linecap: round"/>
     </g>
     <g id="text_2">
      <!-- 2019-01 -->
      <g style="fill: #262626" transform="translate(171.301173 400.764168) rotate(-45) scale(0.1 -0.1)">
       <defs>
        <path id="ArialMT-39" d="M 350 1059 
L 891 1109 
Q 959 728 1153 556 
Q 1347 384 1650 384 
Q 1909 384 2104 503 
Q 2300 622 2425 820 
Q 2550 1019 2634 1356 
Q 2719 1694 2719 2044 
Q 2719 2081 2716 2156 
Q 2547 1888 2255 1720 
Q 1963 1553 1622 1553 
Q 1053 1553 659 1965 
Q 266 2378 266 3053 
Q 266 3750 677 4175 
Q 1088 4600 1706 4600 
Q 2153 4600 2523 4359 
Q 2894 4119 3086 3673 
Q 3278 3228 3278 2384 
Q 3278 1506 3087 986 
Q 2897 466 2520 194 
Q 2144 -78 1638 -78 
Q 1100 -78 759 220 
Q 419 519 350 1059 
z
M 2653 3081 
Q 2653 3566 2395 3850 
Q 2138 4134 1775 4134 
Q 1400 4134 1122 3828 
Q 844 3522 844 3034 
Q 844 2597 1108 2323 
Q 1372 2050 1759 2050 
Q 2150 2050 2401 2323 
Q 2653 2597 2653 3081 
z
" transform="scale(0.015625)"/>
       </defs>
       <use xlink:href="#ArialMT-32"/>
       <use xlink:href="#ArialMT-30" transform="translate(55.615234 0)"/>
       <use xlink:href="#ArialMT-31" transform="translate(111.230469 0)"/>
       <use xlink:href="#ArialMT-39" transform="translate(166.845703 0)"/>
       <use xlink:href="#ArialMT-2d" transform="translate(222.460938 0)"/>
       <use xlink:href="#ArialMT-30" transform="translate(255.761719 0)"/>
       <use xlink:href="#ArialMT-31" transform="translate(311.376953 0)"/>
      </g>
     </g>
    </g>
    <g id="xtick_3">
     <g id="line2d_3">
      <path d="M 287.520591 362.755326 
L 287.520591 23.391562 
" clip-path="url(#pe5357325ff)" style="fill: none; stroke: #cccccc; stroke-width: 0.8; stroke-linecap: round"/>
     </g>
     <g id="text_3">
      <!-- 2020-01 -->
      <g style="fill: #262626" transform="translate(276.374821 400.764168) rotate(-45) scale(0.1 -0.1)">
       <use xlink:href="#ArialMT-32"/>
       <use xlink:href="#ArialMT-30" transform="translate(55.615234 0)"/>
       <use xlink:href="#ArialMT-32" transform="translate(111.230469 0)"/>
       <use xlink:href="#ArialMT-30" transform="translate(166.845703 0)"/>
       <use xlink:href="#ArialMT-2d" transform="translate(222.460938 0)"/>
       <use xlink:href="#ArialMT-30" transform="translate(255.761719 0)"/>
       <use xlink:href="#ArialMT-31" transform="translate(311.376953 0)"/>
      </g>
     </g>
    </g>
    <g id="xtick_4">
     <g id="line2d_4">
      <path d="M 392.882112 362.755326 
L 392.882112 23.391562 
" clip-path="url(#pe5357325ff)" style="fill: none; stroke: #cccccc; stroke-width: 0.8; stroke-linecap: round"/>
     </g>
     <g id="text_4">
      <!-- 2021-01 -->
      <g style="fill: #262626" transform="translate(381.736342 400.764168) rotate(-45) scale(0.1 -0.1)">
       <use xlink:href="#ArialMT-32"/>
       <use xlink:href="#ArialMT-30" transform="translate(55.615234 0)"/>
       <use xlink:href="#ArialMT-32" transform="translate(111.230469 0)"/>
       <use xlink:href="#ArialMT-31" transform="translate(166.845703 0)"/>
       <use xlink:href="#ArialMT-2d" transform="translate(222.460938 0)"/>
       <use xlink:href="#ArialMT-30" transform="translate(255.761719 0)"/>
       <use xlink:href="#ArialMT-31" transform="translate(311.376953 0)"/>
      </g>
     </g>
    </g>
    <g id="xtick_5">
     <g id="line2d_5">
      <path d="M 497.955761 362.755326 
L 497.955761 23.391562 
" clip-path="url(#pe5357325ff)" style="fill: none; stroke: #cccccc; stroke-width: 0.8; stroke-linecap: round"/>
     </g>
     <g id="text_5">
      <!-- 2022-01 -->
      <g style="fill: #262626" transform="translate(486.80999 400.764168) rotate(-45) scale(0.1 -0.1)">
       <use xlink:href="#ArialMT-32"/>
       <use xlink:href="#ArialMT-30" transform="translate(55.615234 0)"/>
       <use xlink:href="#ArialMT-32" transform="translate(111.230469 0)"/>
       <use xlink:href="#ArialMT-32" transform="translate(166.845703 0)"/>
       <use xlink:href="#ArialMT-2d" transform="translate(222.460938 0)"/>
       <use xlink:href="#ArialMT-30" transform="translate(255.761719 0)"/>
       <use xlink:href="#ArialMT-31" transform="translate(311.376953 0)"/>
      </g>
     </g>
    </g>
    <g id="xtick_6">
     <g id="line2d_6">
      <path d="M 603.029409 362.755326 
L 603.029409 23.391562 
" clip-path="url(#pe5357325ff)" style="fill: none; stroke: #cccccc; stroke-width: 0.8; stroke-linecap: round"/>
     </g>
     <g id="text_6">
      <!-- 2023-01 -->
      <g style="fill: #262626" transform="translate(591.883638 400.764168) rotate(-45) scale(0.1 -0.1)">
       <defs>
        <path id="ArialMT-33" d="M 269 1209 
L 831 1284 
Q 928 806 1161 595 
Q 1394 384 1728 384 
Q 2125 384 2398 659 
Q 2672 934 2672 1341 
Q 2672 1728 2419 1979 
Q 2166 2231 1775 2231 
Q 1616 2231 1378 2169 
L 1441 2663 
Q 1497 2656 1531 2656 
Q 1891 2656 2178 2843 
Q 2466 3031 2466 3422 
Q 2466 3731 2256 3934 
Q 2047 4138 1716 4138 
Q 1388 4138 1169 3931 
Q 950 3725 888 3313 
L 325 3413 
Q 428 3978 793 4289 
Q 1159 4600 1703 4600 
Q 2078 4600 2393 4439 
Q 2709 4278 2876 4000 
Q 3044 3722 3044 3409 
Q 3044 3113 2884 2869 
Q 2725 2625 2413 2481 
Q 2819 2388 3044 2092 
Q 3269 1797 3269 1353 
Q 3269 753 2831 336 
Q 2394 -81 1725 -81 
Q 1122 -81 723 278 
Q 325 638 269 1209 
z
" transform="scale(0.015625)"/>
       </defs>
       <use xlink:href="#ArialMT-32"/>
       <use xlink:href="#ArialMT-30" transform="translate(55.615234 0)"/>
       <use xlink:href="#ArialMT-32" transform="translate(111.230469 0)"/>
       <use xlink:href="#ArialMT-33" transform="translate(166.845703 0)"/>
       <use xlink:href="#ArialMT-2d" transform="translate(222.460938 0)"/>
       <use xlink:href="#ArialMT-30" transform="translate(255.761719 0)"/>
       <use xlink:href="#ArialMT-31" transform="translate(311.376953 0)"/>
      </g>
     </g>
    </g>
    <g id="xtick_7">
     <g id="line2d_7">
      <path d="M 708.103057 362.755326 
L 708.103057 23.391562 
" clip-path="url(#pe5357325ff)" style="fill: none; stroke: #cccccc; stroke-width: 0.8; stroke-linecap: round"/>
     </g>
     <g id="text_7">
      <!-- 2024-01 -->
      <g style="fill: #262626" transform="translate(696.957286 400.764168) rotate(-45) scale(0.1 -0.1)">
       <defs>
        <path id="ArialMT-34" d="M 2069 0 
L 2069 1097 
L 81 1097 
L 81 1613 
L 2172 4581 
L 2631 4581 
L 2631 1613 
L 3250 1613 
L 3250 1097 
L 2631 1097 
L 2631 0 
L 2069 0 
z
M 2069 1613 
L 2069 3678 
L 634 1613 
L 2069 1613 
z
" transform="scale(0.015625)"/>
       </defs>
       <use xlink:href="#ArialMT-32"/>
       <use xlink:href="#ArialMT-30" transform="translate(55.615234 0)"/>
       <use xlink:href="#ArialMT-32" transform="translate(111.230469 0)"/>
       <use xlink:href="#ArialMT-34" transform="translate(166.845703 0)"/>
       <use xlink:href="#ArialMT-2d" transform="translate(222.460938 0)"/>
       <use xlink:href="#ArialMT-30" transform="translate(255.761719 0)"/>
       <use xlink:href="#ArialMT-31" transform="translate(311.376953 0)"/>
      </g>
     </g>
    </g>
    <g id="xtick_8">
     <g id="line2d_8">
      <path d="M 813.464578 362.755326 
L 813.464578 23.391562 
" clip-path="url(#pe5357325ff)" style="fill: none; stroke: #cccccc; stroke-width: 0.8; stroke-linecap: round"/>
     </g>
     <g id="text_8">
      <!-- 2025-01 -->
      <g style="fill: #262626" transform="translate(802.318807 400.764168) rotate(-45) scale(0.1 -0.1)">
       <defs>
        <path id="ArialMT-35" d="M 266 1200 
L 856 1250 
Q 922 819 1161 601 
Q 1400 384 1738 384 
Q 2144 384 2425 690 
Q 2706 997 2706 1503 
Q 2706 1984 2436 2262 
Q 2166 2541 1728 2541 
Q 1456 2541 1237 2417 
Q 1019 2294 894 2097 
L 366 2166 
L 809 4519 
L 3088 4519 
L 3088 3981 
L 1259 3981 
L 1013 2750 
Q 1425 3038 1878 3038 
Q 2478 3038 2890 2622 
Q 3303 2206 3303 1553 
Q 3303 931 2941 478 
Q 2500 -78 1738 -78 
Q 1113 -78 717 272 
Q 322 622 266 1200 
z
" transform="scale(0.015625)"/>
       </defs>
       <use xlink:href="#ArialMT-32"/>
       <use xlink:href="#ArialMT-30" transform="translate(55.615234 0)"/>
       <use xlink:href="#ArialMT-32" transform="translate(111.230469 0)"/>
       <use xlink:href="#ArialMT-35" transform="translate(166.845703 0)"/>
       <use xlink:href="#ArialMT-2d" transform="translate(222.460938 0)"/>
       <use xlink:href="#ArialMT-30" transform="translate(255.761719 0)"/>
       <use xlink:href="#ArialMT-31" transform="translate(311.376953 0)"/>
      </g>
     </g>
    </g>
    <g id="text_9">
     <!-- Window Start Date -->
     <g style="fill: #262626" transform="translate(395.258438 414.758917) scale(0.12 -0.12)">
      <defs>
       <path id="ArialMT-57" d="M 1294 0 
L 78 4581 
L 700 4581 
L 1397 1578 
Q 1509 1106 1591 641 
Q 1766 1375 1797 1488 
L 2669 4581 
L 3400 4581 
L 4056 2263 
Q 4303 1400 4413 641 
Q 4500 1075 4641 1638 
L 5359 4581 
L 5969 4581 
L 4713 0 
L 4128 0 
L 3163 3491 
Q 3041 3928 3019 4028 
Q 2947 3713 2884 3491 
L 1913 0 
L 1294 0 
z
" transform="scale(0.015625)"/>
       <path id="ArialMT-69" d="M 425 3934 
L 425 4581 
L 988 4581 
L 988 3934 
L 425 3934 
z
M 425 0 
L 425 3319 
L 988 3319 
L 988 0 
L 425 0 
z
" transform="scale(0.015625)"/>
       <path id="ArialMT-6e" d="M 422 0 
L 422 3319 
L 928 3319 
L 928 2847 
Q 1294 3394 1984 3394 
Q 2284 3394 2536 3286 
Q 2788 3178 2913 3003 
Q 3038 2828 3088 2588 
Q 3119 2431 3119 2041 
L 3119 0 
L 2556 0 
L 2556 2019 
Q 2556 2363 2490 2533 
Q 2425 2703 2258 2804 
Q 2091 2906 1866 2906 
Q 1506 2906 1245 2678 
Q 984 2450 984 1813 
L 984 0 
L 422 0 
z
" transform="scale(0.015625)"/>
       <path id="ArialMT-64" d="M 2575 0 
L 2575 419 
Q 2259 -75 1647 -75 
Q 1250 -75 917 144 
Q 584 363 401 755 
Q 219 1147 219 1656 
Q 219 2153 384 2558 
Q 550 2963 881 3178 
Q 1213 3394 1622 3394 
Q 1922 3394 2156 3267 
Q 2391 3141 2538 2938 
L 2538 4581 
L 3097 4581 
L 3097 0 
L 2575 0 
z
M 797 1656 
Q 797 1019 1065 703 
Q 1334 388 1700 388 
Q 2069 388 2326 689 
Q 2584 991 2584 1609 
Q 2584 2291 2321 2609 
Q 2059 2928 1675 2928 
Q 1300 2928 1048 2622 
Q 797 2316 797 1656 
z
" transform="scale(0.015625)"/>
       <path id="ArialMT-6f" d="M 213 1659 
Q 213 2581 725 3025 
Q 1153 3394 1769 3394 
Q 2453 3394 2887 2945 
Q 3322 2497 3322 1706 
Q 3322 1066 3130 698 
Q 2938 331 2570 128 
Q 2203 -75 1769 -75 
Q 1072 -75 642 372 
Q 213 819 213 1659 
z
M 791 1659 
Q 791 1022 1069 705 
Q 1347 388 1769 388 
Q 2188 388 2466 706 
Q 2744 1025 2744 1678 
Q 2744 2294 2464 2611 
Q 2184 2928 1769 2928 
Q 1347 2928 1069 2612 
Q 791 2297 791 1659 
z
" transform="scale(0.015625)"/>
       <path id="ArialMT-77" d="M 1034 0 
L 19 3319 
L 600 3319 
L 1128 1403 
L 1325 691 
Q 1338 744 1497 1375 
L 2025 3319 
L 2603 3319 
L 3100 1394 
L 3266 759 
L 3456 1400 
L 4025 3319 
L 4572 3319 
L 3534 0 
L 2950 0 
L 2422 1988 
L 2294 2553 
L 1622 0 
L 1034 0 
z
" transform="scale(0.015625)"/>
       <path id="ArialMT-20" transform="scale(0.015625)"/>
       <path id="ArialMT-53" d="M 288 1472 
L 859 1522 
Q 900 1178 1048 958 
Q 1197 738 1509 602 
Q 1822 466 2213 466 
Q 2559 466 2825 569 
Q 3091 672 3220 851 
Q 3350 1031 3350 1244 
Q 3350 1459 3225 1620 
Q 3100 1781 2813 1891 
Q 2628 1963 1997 2114 
Q 1366 2266 1113 2400 
Q 784 2572 623 2826 
Q 463 3081 463 3397 
Q 463 3744 659 4045 
Q 856 4347 1234 4503 
Q 1613 4659 2075 4659 
Q 2584 4659 2973 4495 
Q 3363 4331 3572 4012 
Q 3781 3694 3797 3291 
L 3216 3247 
Q 3169 3681 2898 3903 
Q 2628 4125 2100 4125 
Q 1550 4125 1298 3923 
Q 1047 3722 1047 3438 
Q 1047 3191 1225 3031 
Q 1400 2872 2139 2705 
Q 2878 2538 3153 2413 
Q 3553 2228 3743 1945 
Q 3934 1663 3934 1294 
Q 3934 928 3725 604 
Q 3516 281 3123 101 
Q 2731 -78 2241 -78 
Q 1619 -78 1198 103 
Q 778 284 539 648 
Q 300 1013 288 1472 
z
" transform="scale(0.015625)"/>
       <path id="ArialMT-74" d="M 1650 503 
L 1731 6 
Q 1494 -44 1306 -44 
Q 1000 -44 831 53 
Q 663 150 594 308 
Q 525 466 525 972 
L 525 2881 
L 113 2881 
L 113 3319 
L 525 3319 
L 525 4141 
L 1084 4478 
L 1084 3319 
L 1650 3319 
L 1650 2881 
L 1084 2881 
L 1084 941 
Q 1084 700 1114 631 
Q 1144 563 1211 522 
Q 1278 481 1403 481 
Q 1497 481 1650 503 
z
" transform="scale(0.015625)"/>
       <path id="ArialMT-61" d="M 2588 409 
Q 2275 144 1986 34 
Q 1697 -75 1366 -75 
Q 819 -75 525 192 
Q 231 459 231 875 
Q 231 1119 342 1320 
Q 453 1522 633 1644 
Q 813 1766 1038 1828 
Q 1203 1872 1538 1913 
Q 2219 1994 2541 2106 
Q 2544 2222 2544 2253 
Q 2544 2597 2384 2738 
Q 2169 2928 1744 2928 
Q 1347 2928 1158 2789 
Q 969 2650 878 2297 
L 328 2372 
Q 403 2725 575 2942 
Q 747 3159 1072 3276 
Q 1397 3394 1825 3394 
Q 2250 3394 2515 3294 
Q 2781 3194 2906 3042 
Q 3031 2891 3081 2659 
Q 3109 2516 3109 2141 
L 3109 1391 
Q 3109 606 3145 398 
Q 3181 191 3288 0 
L 2700 0 
Q 2613 175 2588 409 
z
M 2541 1666 
Q 2234 1541 1622 1453 
Q 1275 1403 1131 1340 
Q 988 1278 909 1158 
Q 831 1038 831 891 
Q 831 666 1001 516 
Q 1172 366 1500 366 
Q 1825 366 2078 508 
Q 2331 650 2450 897 
Q 2541 1088 2541 1459 
L 2541 1666 
z
" transform="scale(0.015625)"/>
       <path id="ArialMT-72" d="M 416 0 
L 416 3319 
L 922 3319 
L 922 2816 
Q 1116 3169 1280 3281 
Q 1444 3394 1641 3394 
Q 1925 3394 2219 3213 
L 2025 2691 
Q 1819 2813 1613 2813 
Q 1428 2813 1281 2702 
Q 1134 2591 1072 2394 
Q 978 2094 978 1738 
L 978 0 
L 416 0 
z
" transform="scale(0.015625)"/>
       <path id="ArialMT-44" d="M 494 0 
L 494 4581 
L 2072 4581 
Q 2606 4581 2888 4516 
Q 3281 4425 3559 4188 
Q 3922 3881 4101 3404 
Q 4281 2928 4281 2316 
Q 4281 1794 4159 1391 
Q 4038 988 3847 723 
Q 3656 459 3429 307 
Q 3203 156 2883 78 
Q 2563 0 2147 0 
L 494 0 
z
M 1100 541 
L 2078 541 
Q 2531 541 2789 625 
Q 3047 709 3200 863 
Q 3416 1078 3536 1442 
Q 3656 1806 3656 2325 
Q 3656 3044 3420 3430 
Q 3184 3816 2847 3947 
Q 2603 4041 2063 4041 
L 1100 4041 
L 1100 541 
z
" transform="scale(0.015625)"/>
       <path id="ArialMT-65" d="M 2694 1069 
L 3275 997 
Q 3138 488 2766 206 
Q 2394 -75 1816 -75 
Q 1088 -75 661 373 
Q 234 822 234 1631 
Q 234 2469 665 2931 
Q 1097 3394 1784 3394 
Q 2450 3394 2872 2941 
Q 3294 2488 3294 1666 
Q 3294 1616 3291 1516 
L 816 1516 
Q 847 969 1125 678 
Q 1403 388 1819 388 
Q 2128 388 2347 550 
Q 2566 713 2694 1069 
z
M 847 1978 
L 2700 1978 
Q 2663 2397 2488 2606 
Q 2219 2931 1791 2931 
Q 1403 2931 1139 2672 
Q 875 2413 847 1978 
z
" transform="scale(0.015625)"/>
      </defs>
      <use xlink:href="#ArialMT-57"/>
      <use xlink:href="#ArialMT-69" transform="translate(94.384766 0)"/>
      <use xlink:href="#ArialMT-6e" transform="translate(116.601562 0)"/>
      <use xlink:href="#ArialMT-64" transform="translate(172.216797 0)"/>
      <use xlink:href="#ArialMT-6f" transform="translate(227.832031 0)"/>
      <use xlink:href="#ArialMT-77" transform="translate(283.447266 0)"/>
      <use xlink:href="#ArialMT-20" transform="translate(355.664062 0)"/>
      <use xlink:href="#ArialMT-53" transform="translate(383.447266 0)"/>
      <use xlink:href="#ArialMT-74" transform="translate(450.146484 0)"/>
      <use xlink:href="#ArialMT-61" transform="translate(477.929688 0)"/>
      <use xlink:href="#ArialMT-72" transform="translate(533.544922 0)"/>
      <use xlink:href="#ArialMT-74" transform="translate(566.845703 0)"/>
      <use xlink:href="#ArialMT-20" transform="translate(594.628906 0)"/>
      <use xlink:href="#ArialMT-44" transform="translate(622.412109 0)"/>
      <use xlink:href="#ArialMT-61" transform="translate(694.628906 0)"/>
      <use xlink:href="#ArialMT-74" transform="translate(750.244141 0)"/>
      <use xlink:href="#ArialMT-65" transform="translate(778.027344 0)"/>
     </g>
    </g>
   </g>
   <g id="matplotlib.axis_2">
    <g id="ytick_1">
     <g id="line2d_9">
      <path d="M 40.583125 344.534894 
L 849.966875 344.534894 
" clip-path="url(#pe5357325ff)" style="fill: none; stroke: #cccccc; stroke-width: 0.8; stroke-linecap: round"/>
     </g>
     <g id="text_10">
      <!-- 20 -->
      <g style="fill: #262626" transform="translate(22.46125 348.1138) scale(0.1 -0.1)">
       <use xlink:href="#ArialMT-32"/>
       <use xlink:href="#ArialMT-30" transform="translate(55.615234 0)"/>
      </g>
     </g>
    </g>
    <g id="ytick_2">
     <g id="line2d_10">
      <path d="M 40.583125 276.946553 
L 849.966875 276.946553 
" clip-path="url(#pe5357325ff)" style="fill: none; stroke: #cccccc; stroke-width: 0.8; stroke-linecap: round"/>
     </g>
     <g id="text_11">
      <!-- 30 -->
      <g style="fill: #262626" transform="translate(22.46125 280.525459) scale(0.1 -0.1)">
       <use xlink:href="#ArialMT-33"/>
       <use xlink:href="#ArialMT-30" transform="translate(55.615234 0)"/>
      </g>
     </g>
    </g>
    <g id="ytick_3">
     <g id="line2d_11">
      <path d="M 40.583125 209.358212 
L 849.966875 209.358212 
" clip-path="url(#pe5357325ff)" style="fill: none; stroke: #cccccc; stroke-width: 0.8; stroke-linecap: round"/>
     </g>
     <g id="text_12">
      <!-- 40 -->
      <g style="fill: #262626" transform="translate(22.46125 212.937119) scale(0.1 -0.1)">
       <use xlink:href="#ArialMT-34"/>
       <use xlink:href="#ArialMT-30" transform="translate(55.615234 0)"/>
      </g>
     </g>
    </g>
    <g id="ytick_4">
     <g id="line2d_12">
      <path d="M 40.583125 141.769872 
L 849.966875 141.769872 
" clip-path="url(#pe5357325ff)" style="fill: none; stroke: #cccccc; stroke-width: 0.8; stroke-linecap: round"/>
     </g>
     <g id="text_13">
      <!-- 50 -->
      <g style="fill: #262626" transform="translate(22.46125 145.348778) scale(0.1 -0.1)">
       <use xlink:href="#ArialMT-35"/>
       <use xlink:href="#ArialMT-30" transform="translate(55.615234 0)"/>
      </g>
     </g>
    </g>
    <g id="ytick_5">
     <g id="line2d_13">
      <path d="M 40.583125 74.181531 
L 849.966875 74.181531 
" clip-path="url(#pe5357325ff)" style="fill: none; stroke: #cccccc; stroke-width: 0.8; stroke-linecap: round"/>
     </g>
     <g id="text_14">
      <!-- 60 -->
      <g style="fill: #262626" transform="translate(22.46125 77.760437) scale(0.1 -0.1)">
       <defs>
        <path id="ArialMT-36" d="M 3184 3459 
L 2625 3416 
Q 2550 3747 2413 3897 
Q 2184 4138 1850 4138 
Q 1581 4138 1378 3988 
Q 1113 3794 959 3422 
Q 806 3050 800 2363 
Q 1003 2672 1297 2822 
Q 1591 2972 1913 2972 
Q 2475 2972 2870 2558 
Q 3266 2144 3266 1488 
Q 3266 1056 3080 686 
Q 2894 316 2569 119 
Q 2244 -78 1831 -78 
Q 1128 -78 684 439 
Q 241 956 241 2144 
Q 241 3472 731 4075 
Q 1159 4600 1884 4600 
Q 2425 4600 2770 4297 
Q 3116 3994 3184 3459 
z
M 888 1484 
Q 888 1194 1011 928 
Q 1134 663 1356 523 
Q 1578 384 1822 384 
Q 2178 384 2434 671 
Q 2691 959 2691 1453 
Q 2691 1928 2437 2201 
Q 2184 2475 1800 2475 
Q 1419 2475 1153 2201 
Q 888 1928 888 1484 
z
" transform="scale(0.015625)"/>
       </defs>
       <use xlink:href="#ArialMT-36"/>
       <use xlink:href="#ArialMT-30" transform="translate(55.615234 0)"/>
      </g>
     </g>
    </g>
    <g id="text_15">
     <!-- SPD Percentile (%) -->
     <g style="fill: #262626" transform="translate(15.935625 244.755007) rotate(-90) scale(0.12 -0.12)">
      <defs>
       <path id="ArialMT-50" d="M 494 0 
L 494 4581 
L 2222 4581 
Q 2678 4581 2919 4538 
Q 3256 4481 3484 4323 
Q 3713 4166 3852 3881 
Q 3991 3597 3991 3256 
Q 3991 2672 3619 2267 
Q 3247 1863 2275 1863 
L 1100 1863 
L 1100 0 
L 494 0 
z
M 1100 2403 
L 2284 2403 
Q 2872 2403 3119 2622 
Q 3366 2841 3366 3238 
Q 3366 3525 3220 3729 
Q 3075 3934 2838 4000 
Q 2684 4041 2272 4041 
L 1100 4041 
L 1100 2403 
z
" transform="scale(0.015625)"/>
       <path id="ArialMT-63" d="M 2588 1216 
L 3141 1144 
Q 3050 572 2676 248 
Q 2303 -75 1759 -75 
Q 1078 -75 664 370 
Q 250 816 250 1647 
Q 250 2184 428 2587 
Q 606 2991 970 3192 
Q 1334 3394 1763 3394 
Q 2303 3394 2647 3120 
Q 2991 2847 3088 2344 
L 2541 2259 
Q 2463 2594 2264 2762 
Q 2066 2931 1784 2931 
Q 1359 2931 1093 2626 
Q 828 2322 828 1663 
Q 828 994 1084 691 
Q 1341 388 1753 388 
Q 2084 388 2306 591 
Q 2528 794 2588 1216 
z
" transform="scale(0.015625)"/>
       <path id="ArialMT-6c" d="M 409 0 
L 409 4581 
L 972 4581 
L 972 0 
L 409 0 
z
" transform="scale(0.015625)"/>
       <path id="ArialMT-28" d="M 1497 -1347 
Q 1031 -759 709 28 
Q 388 816 388 1659 
Q 388 2403 628 3084 
Q 909 3875 1497 4659 
L 1900 4659 
Q 1522 4009 1400 3731 
Q 1209 3300 1100 2831 
Q 966 2247 966 1656 
Q 966 153 1900 -1347 
L 1497 -1347 
z
" transform="scale(0.015625)"/>
       <path id="ArialMT-25" d="M 372 3481 
Q 372 3972 619 4315 
Q 866 4659 1334 4659 
Q 1766 4659 2048 4351 
Q 2331 4044 2331 3447 
Q 2331 2866 2045 2552 
Q 1759 2238 1341 2238 
Q 925 2238 648 2547 
Q 372 2856 372 3481 
z
M 1350 4272 
Q 1141 4272 1002 4090 
Q 863 3909 863 3425 
Q 863 2984 1003 2804 
Q 1144 2625 1350 2625 
Q 1563 2625 1702 2806 
Q 1841 2988 1841 3469 
Q 1841 3913 1700 4092 
Q 1559 4272 1350 4272 
z
M 1353 -169 
L 3859 4659 
L 4316 4659 
L 1819 -169 
L 1353 -169 
z
M 3334 1075 
Q 3334 1569 3581 1911 
Q 3828 2253 4300 2253 
Q 4731 2253 5014 1945 
Q 5297 1638 5297 1041 
Q 5297 459 5011 145 
Q 4725 -169 4303 -169 
Q 3888 -169 3611 142 
Q 3334 453 3334 1075 
z
M 4316 1866 
Q 4103 1866 3964 1684 
Q 3825 1503 3825 1019 
Q 3825 581 3965 400 
Q 4106 219 4313 219 
Q 4528 219 4667 400 
Q 4806 581 4806 1063 
Q 4806 1506 4665 1686 
Q 4525 1866 4316 1866 
z
" transform="scale(0.015625)"/>
       <path id="ArialMT-29" d="M 791 -1347 
L 388 -1347 
Q 1322 153 1322 1656 
Q 1322 2244 1188 2822 
Q 1081 3291 891 3722 
Q 769 4003 388 4659 
L 791 4659 
Q 1378 3875 1659 3084 
Q 1900 2403 1900 1659 
Q 1900 816 1576 28 
Q 1253 -759 791 -1347 
z
" transform="scale(0.015625)"/>
      </defs>
      <use xlink:href="#ArialMT-53"/>
      <use xlink:href="#ArialMT-50" transform="translate(66.699219 0)"/>
      <use xlink:href="#ArialMT-44" transform="translate(133.398438 0)"/>
      <use xlink:href="#ArialMT-20" transform="translate(205.615234 0)"/>
      <use xlink:href="#ArialMT-50" transform="translate(233.398438 0)"/>
      <use xlink:href="#ArialMT-65" transform="translate(300.097656 0)"/>
      <use xlink:href="#ArialMT-72" transform="translate(355.712891 0)"/>
      <use xlink:href="#ArialMT-63" transform="translate(389.013672 0)"/>
      <use xlink:href="#ArialMT-65" transform="translate(439.013672 0)"/>
      <use xlink:href="#ArialMT-6e" transform="translate(494.628906 0)"/>
      <use xlink:href="#ArialMT-74" transform="translate(550.244141 0)"/>
      <use xlink:href="#ArialMT-69" transform="translate(578.027344 0)"/>
      <use xlink:href="#ArialMT-6c" transform="translate(600.244141 0)"/>
      <use xlink:href="#ArialMT-65" transform="translate(622.460938 0)"/>
      <use xlink:href="#ArialMT-20" transform="translate(678.076172 0)"/>
      <use xlink:href="#ArialMT-28" transform="translate(705.859375 0)"/>
      <use xlink:href="#ArialMT-25" transform="translate(739.160156 0)"/>
      <use xlink:href="#ArialMT-29" transform="translate(828.076172 0)"/>
     </g>
    </g>
   </g>
   <g id="FillBetweenPolyCollection_1"/>
   <g id="FillBetweenPolyCollection_2"/>
   <g id="line2d_14">
    <path d="M 77.373295 208.871334 
L 77.661168 204.356307 
L 77.949041 205.2437 
L 78.236914 199.380984 
L 78.524787 198.776965 
L 78.81266 195.657345 
L 79.100534 206.808551 
L 79.388407 212.129009 
L 79.67628 212.031956 
L 79.964153 210.624163 
L 80.252026 197.792664 
L 81.115645 191.039952 
L 81.403518 197.005822 
L 81.691391 199.058718 
L 81.979264 198.37995 
L 82.267137 198.086412 
L 82.55501 194.878899 
L 82.842883 196.735184 
L 83.130756 200.997975 
L 83.418629 199.043285 
L 83.706502 199.445465 
L 83.994375 196.435748 
L 84.282248 195.509937 
L 85.145867 188.909531 
L 85.721613 178.625753 
L 86.009486 179.386105 
L 86.297359 176.197631 
L 86.585232 176.673137 
L 86.873105 176.171046 
L 87.160978 171.937213 
L 87.448851 170.485081 
L 87.736724 170.193892 
L 88.024597 165.451627 
L 88.31247 163.607184 
L 88.600343 176.337754 
L 88.888216 175.506526 
L 89.176089 175.312757 
L 89.463962 171.46207 
L 90.039708 168.128355 
L 90.327581 166.024633 
L 90.615454 164.776457 
L 90.903327 164.415841 
L 91.1912 164.959097 
L 91.479073 175.337993 
L 91.766946 175.363092 
L 92.054819 175.677554 
L 92.342692 172.74716 
L 92.630565 174.049767 
L 92.918438 179.599339 
L 93.206311 163.15668 
L 93.494184 165.163062 
L 93.782057 162.807731 
L 94.933549 158.58629 
L 95.221422 156.120052 
L 95.509295 150.981228 
L 96.085041 179.26202 
L 96.372914 180.299469 
L 96.660787 178.501819 
L 96.94866 180.712469 
L 97.236533 179.51771 
L 97.524406 176.22712 
L 97.812279 175.599994 
L 98.388025 173.567169 
L 98.675898 174.778798 
L 98.963771 177.536396 
L 99.251644 175.867545 
L 99.539517 175.146657 
L 99.82739 175.341005 
L 100.115263 175.774037 
L 100.403136 172.837357 
L 100.691009 172.271895 
L 101.266755 170.112077 
L 101.554628 166.99233 
L 101.842501 166.616719 
L 102.130374 169.872393 
L 102.418247 168.654061 
L 102.70612 170.764561 
L 103.281866 169.974835 
L 103.569739 170.896482 
L 103.857612 189.931236 
L 104.145485 190.641702 
L 104.433358 189.287362 
L 104.721231 191.350207 
L 105.009104 191.257478 
L 105.296977 193.503087 
L 105.58485 194.712234 
L 105.872723 192.966645 
L 106.160596 194.474289 
L 106.448469 189.985958 
L 106.736342 189.998151 
L 107.024215 189.370573 
L 107.312088 190.104107 
L 107.599961 187.922075 
L 107.887834 189.691605 
L 108.175707 189.45787 
L 108.46358 189.563699 
L 109.039326 188.785881 
L 109.327199 187.943567 
L 109.615072 188.223367 
L 109.902945 189.119642 
L 110.190818 187.389414 
L 110.478691 183.898138 
L 111.054437 183.028985 
L 111.630183 181.331511 
L 111.918056 181.488231 
L 112.493802 180.884593 
L 112.781675 181.562181 
L 113.069548 181.383747 
L 113.357421 184.308465 
L 113.645294 188.693671 
L 113.933168 189.47482 
L 114.221041 189.123424 
L 114.508914 194.748843 
L 114.796787 203.047981 
L 115.08466 203.767107 
L 115.372533 202.873826 
L 115.660406 203.447145 
L 115.948279 207.467031 
L 116.811898 209.243198 
L 117.099771 209.694108 
L 117.387644 210.436715 
L 117.675517 214.364257 
L 118.827009 217.209345 
L 119.114882 218.05297 
L 119.402755 209.611404 
L 119.690628 208.390451 
L 120.84212 212.167945 
L 121.993612 215.507495 
L 123.72085 219.876961 
L 124.584469 222.680745 
L 124.872342 223.756345 
L 125.160215 224.003406 
L 125.448088 220.776616 
L 125.735961 214.298832 
L 126.311707 216.506633 
L 126.59958 213.098069 
L 127.175326 194.946344 
L 127.463199 194.647397 
L 127.751072 192.950364 
L 128.326818 174.216551 
L 129.47831 179.690356 
L 129.766183 151.080455 
L 131.493421 154.033579 
L 134.084278 158.779142 
L 134.947897 159.673994 
L 135.811516 160.639438 
L 136.387262 160.993849 
L 138.690246 162.397933 
L 139.553865 163.431295 
L 140.705357 165.431321 
L 143.584087 170.552259 
L 145.311325 173.301318 
L 146.75069 175.064795 
L 148.765802 177.358018 
L 150.49304 180.236584 
L 152.796024 183.918706 
L 153.947516 185.481558 
L 155.386881 186.742876 
L 156.538373 187.72062 
L 157.977738 188.88867 
L 158.841357 189.68296 
L 160.280722 191.238493 
L 163.159452 193.647472 
L 168.916912 201.275801 
L 170.356277 203.893289 
L 174.386499 216.032453 
L 174.962245 218.014046 
L 177.265229 227.875861 
L 177.553102 229.217736 
L 177.840975 229.500389 
L 178.128848 213.589032 
L 179.568213 218.875647 
L 182.15907 228.187349 
L 182.446943 229.295867 
L 182.734816 247.770128 
L 183.598435 250.188981 
L 185.325674 255.491695 
L 187.052912 262.246411 
L 190.795261 277.694672 
L 193.098245 288.530806 
L 193.386118 274.130974 
L 195.401229 284.306916 
L 195.689102 284.304797 
L 195.976975 282.930516 
L 196.264848 278.690798 
L 198.279959 288.1958 
L 200.29507 297.109522 
L 200.582943 288.596352 
L 201.446562 292.67734 
L 201.734435 293.181351 
L 202.885927 297.87129 
L 203.1738 298.010542 
L 203.461673 295.324101 
L 203.749546 295.236211 
L 204.901038 296.763297 
L 206.340403 300.439052 
L 206.628276 300.782982 
L 206.916149 295.575805 
L 207.204022 296.504801 
L 207.491895 292.13203 
L 208.067641 293.180032 
L 208.355514 291.050992 
L 208.643387 235.717924 
L 208.93126 235.763036 
L 209.219133 236.451158 
L 209.507006 233.268247 
L 212.097863 238.84778 
L 214.68872 243.123971 
L 215.264466 244.05821 
L 216.703831 247.681244 
L 218.143196 252.309745 
L 220.158308 257.891399 
L 220.734054 258.423077 
L 221.597673 259.37916 
L 222.749165 261.090878 
L 223.612784 261.976306 
L 224.18853 262.358038 
L 225.052149 262.495843 
L 226.203641 263.404016 
L 227.06726 264.44655 
L 228.506625 266.445102 
L 229.370244 267.428543 
L 229.94599 267.819563 
L 231.097482 268.138893 
L 231.673228 268.129692 
L 232.248974 267.83387 
L 232.82472 267.536871 
L 233.112593 267.228997 
L 233.400466 273.471032 
L 233.976212 272.769871 
L 234.551958 272.191797 
L 234.839831 271.998678 
L 235.127704 275.81058 
L 235.70345 274.753614 
L 235.991323 274.518745 
L 236.279196 274.095067 
L 236.567069 274.109698 
L 236.854942 273.543127 
L 237.142815 285.558478 
L 237.430688 288.776076 
L 237.718561 288.4972 
L 238.294307 287.731017 
L 239.157926 287.015493 
L 240.021545 286.303858 
L 240.597291 285.724053 
L 242.324529 285.475957 
L 242.612402 285.834274 
L 245.203259 286.497186 
L 245.491132 287.349721 
L 246.066878 291.520785 
L 246.354751 291.613866 
L 246.642624 289.543712 
L 247.21837 289.725165 
L 248.081989 290.479506 
L 248.369862 289.885329 
L 248.657735 278.71276 
L 249.809227 279.516364 
L 251.536465 280.757357 
L 252.97583 282.124759 
L 253.263703 282.237091 
L 254.990942 282.07763 
L 257.293926 282.279802 
L 259.021164 282.783316 
L 259.59691 283.378926 
L 261.612021 286.115762 
L 263.051386 288.081751 
L 264.490751 290.098896 
L 266.793735 294.251043 
L 267.081608 294.794433 
L 267.369481 282.096119 
L 267.657354 279.465666 
L 267.945227 280.254573 
L 268.2331 278.201051 
L 268.808846 279.020426 
L 269.096719 267.899883 
L 269.960338 269.260942 
L 270.248211 267.226907 
L 270.823957 268.161514 
L 271.399703 263.246433 
L 271.687576 241.411603 
L 272.263322 242.39724 
L 273.126941 244.221063 
L 273.414814 243.40142 
L 273.702687 237.230108 
L 273.99056 237.445392 
L 274.566306 238.844439 
L 274.854179 234.935193 
L 275.142052 226.310656 
L 275.429925 225.997841 
L 275.717798 226.697376 
L 276.005671 220.375633 
L 276.293544 221.041075 
L 276.86929 223.117958 
L 277.157163 220.701493 
L 278.308655 224.471812 
L 278.596528 225.424952 
L 278.884401 222.634687 
L 283.202496 238.202808 
L 283.778242 221.316882 
L 284.066115 221.142878 
L 284.353988 218.434406 
L 285.793353 223.971974 
L 286.081226 221.516893 
L 286.369099 215.609394 
L 286.656972 216.747292 
L 286.944845 215.909471 
L 287.232718 216.423185 
L 287.520591 212.537827 
L 287.808464 213.211382 
L 288.096337 213.437557 
L 288.384211 207.898601 
L 288.672084 206.340481 
L 288.959957 207.545834 
L 289.24783 207.182173 
L 289.823576 200.509556 
L 290.111449 199.52776 
L 292.414433 208.395687 
L 297.020401 224.96436 
L 298.747639 230.946364 
L 299.035512 225.186735 
L 299.323385 225.739968 
L 299.611258 226.715692 
L 299.899131 226.289819 
L 300.474877 228.279294 
L 300.76275 228.385209 
L 301.338496 230.196776 
L 301.626369 228.428999 
L 301.914242 229.5255 
L 302.202115 227.783709 
L 302.489988 228.863684 
L 302.777861 228.808539 
L 304.505099 235.716167 
L 307.959575 250.242444 
L 308.535321 248.81596 
L 309.111067 252.393663 
L 309.39894 235.512698 
L 309.686813 237.343266 
L 309.974686 217.543149 
L 310.838305 223.014098 
L 311.126178 221.437904 
L 312.853416 232.435399 
L 313.141289 210.005481 
L 313.429162 212.096088 
L 313.717035 205.258067 
L 316.595765 225.667543 
L 317.171511 229.523906 
L 317.459384 229.719428 
L 317.747257 231.648129 
L 318.03513 224.156093 
L 319.186622 231.72205 
L 319.474495 232.98181 
L 319.762368 224.749301 
L 320.050241 211.971322 
L 320.338114 213.172929 
L 320.625987 213.830509 
L 320.91386 209.889904 
L 321.201733 208.406085 
L 321.489606 210.336273 
L 321.777479 179.545628 
L 324.368337 196.076895 
L 325.231956 201.199704 
L 325.519829 195.001248 
L 326.671321 201.493902 
L 328.110686 208.633661 
L 328.974305 212.844468 
L 329.262178 213.327802 
L 329.550051 214.800765 
L 329.837924 210.500589 
L 331.277289 217.392875 
L 334.156019 230.378764 
L 337.034749 243.629374 
L 338.761987 251.03343 
L 339.04986 250.469535 
L 339.913479 254.443065 
L 340.201352 260.22718 
L 341.064971 263.743919 
L 341.352844 263.57406 
L 344.231574 276.030708 
L 344.519447 276.673644 
L 345.095193 278.948913 
L 345.383066 280.215964 
L 345.670939 275.862779 
L 345.958812 273.555463 
L 346.246685 274.440849 
L 346.534558 275.752129 
L 346.822431 273.217111 
L 347.398177 265.696495 
L 349.989034 275.991484 
L 358.337352 306.267575 
L 359.776717 312.771845 
L 360.06459 311.856303 
L 360.928209 315.589286 
L 364.094812 329.840746 
L 364.382685 325.666806 
L 367.837161 342.330955 
L 368.125034 342.757415 
L 368.412907 340.651094 
L 368.70078 339.525658 
L 368.988653 337.552109 
L 369.276526 338.501701 
L 371.003764 347.3297 
L 371.291637 347.135961 
L 371.867383 342.58308 
L 372.155256 327.682938 
L 372.443129 327.77914 
L 372.731002 329.39434 
L 373.018875 329.762724 
L 373.594621 332.489052 
L 373.882494 331.210479 
L 374.170367 332.784072 
L 374.45824 331.898556 
L 374.746113 331.91824 
L 375.609732 336.854499 
L 375.897605 333.258024 
L 376.185478 333.224546 
L 376.473351 325.185356 
L 377.049097 328.419724 
L 377.33697 324.236096 
L 377.624843 322.56327 
L 377.912716 324.338583 
L 378.200589 320.719104 
L 378.488462 319.140195 
L 379.352081 324.354838 
L 379.639954 316.477267 
L 379.927827 313.603235 
L 381.942938 324.911889 
L 382.806557 329.657057 
L 383.09443 323.775274 
L 383.382303 321.722029 
L 384.533795 327.975277 
L 386.836779 339.754964 
L 387.124652 333.478761 
L 387.412525 331.497084 
L 387.700398 331.464183 
L 387.988271 331.626067 
L 388.564017 296.701213 
L 388.85189 296.185119 
L 389.715509 300.615069 
L 390.003382 298.356704 
L 390.291255 299.779592 
L 390.579128 297.280705 
L 390.867001 287.40858 
L 391.154874 266.600639 
L 391.442747 268.300205 
L 391.73062 261.874362 
L 392.018493 259.200007 
L 392.306366 237.135901 
L 392.594239 236.309693 
L 392.882112 231.764031 
L 393.169986 229.863615 
L 393.457859 230.79666 
L 393.745732 230.98515 
L 394.033605 231.521226 
L 394.321478 229.86029 
L 394.609351 229.840823 
L 394.897224 228.041206 
L 395.185097 228.410143 
L 395.760843 228.654061 
L 396.336589 232.555159 
L 396.624462 231.124458 
L 397.200208 232.512244 
L 397.488081 232.877323 
L 397.775954 231.854595 
L 398.063827 232.517066 
L 398.3517 231.84941 
L 398.639573 230.482465 
L 398.927446 222.829897 
L 399.215319 219.552338 
L 399.503192 222.696675 
L 400.078938 224.722269 
L 400.366811 224.671141 
L 400.654684 225.577334 
L 400.942557 227.448497 
L 401.23043 228.332804 
L 401.518303 228.269479 
L 402.094049 230.655651 
L 402.381922 226.374699 
L 402.669795 226.495614 
L 402.957668 235.642005 
L 403.245541 236.644576 
L 403.533414 238.43578 
L 403.821287 241.567001 
L 404.397033 242.211002 
L 404.684906 240.575672 
L 404.972779 237.700786 
L 405.260652 236.977019 
L 405.548525 236.708838 
L 405.836398 237.322561 
L 406.124271 240.936136 
L 406.412144 239.766504 
L 406.700017 231.499125 
L 406.98789 229.493384 
L 407.275763 228.882705 
L 407.851509 218.798506 
L 408.139382 221.23127 
L 408.427255 217.967364 
L 409.003001 222.701427 
L 409.290874 221.566291 
L 409.578747 217.052291 
L 409.86662 231.525261 
L 410.154493 233.894318 
L 410.442366 232.925445 
L 410.730239 229.107507 
L 411.018112 219.804013 
L 411.305985 220.153591 
L 411.593858 216.804272 
L 411.881731 215.450915 
L 412.169604 216.566116 
L 412.457477 224.90154 
L 412.74535 217.499309 
L 413.033223 214.813493 
L 413.321096 214.432099 
L 413.608969 210.050943 
L 413.896842 214.773534 
L 414.184715 213.261151 
L 414.472588 217.503522 
L 414.760461 216.472033 
L 415.048334 218.130938 
L 415.336207 218.471241 
L 415.62408 215.509859 
L 415.911953 214.275575 
L 416.199826 217.236152 
L 416.487699 217.654075 
L 416.775572 220.308939 
L 417.063445 220.885399 
L 417.351318 220.885352 
L 417.639191 225.458944 
L 417.927064 226.039425 
L 418.214937 226.137249 
L 418.50281 225.011502 
L 418.790683 221.217742 
L 419.078556 222.234446 
L 419.366429 221.08579 
L 419.654302 221.732803 
L 419.942175 221.759251 
L 420.230048 219.203485 
L 420.517921 213.166627 
L 420.805794 213.305441 
L 421.093667 209.388443 
L 421.38154 209.961127 
L 421.669413 208.271642 
L 421.957286 200.147279 
L 422.245159 200.9784 
L 422.533032 203.072891 
L 422.820905 198.852382 
L 423.108778 199.73789 
L 423.396651 198.728098 
L 423.684524 195.914995 
L 423.972397 198.384907 
L 424.26027 199.592637 
L 424.548143 198.773346 
L 425.123889 193.324005 
L 425.699635 191.838443 
L 425.987508 194.125588 
L 426.275381 186.806768 
L 426.563254 189.501844 
L 426.851127 190.379803 
L 427.426873 183.339101 
L 427.714746 184.774408 
L 428.00262 184.39994 
L 428.290493 181.225836 
L 428.578366 185.999085 
L 428.866239 176.384898 
L 429.441985 171.730962 
L 429.729858 166.066721 
L 430.017731 151.342857 
L 430.305604 152.628512 
L 430.593477 161.266318 
L 431.169223 161.877947 
L 431.457096 164.256757 
L 431.744969 167.945448 
L 432.032842 162.633353 
L 432.320715 164.280273 
L 432.608588 157.913281 
L 432.896461 163.475794 
L 433.184334 159.280912 
L 433.472207 159.874676 
L 433.76008 163.011774 
L 434.047953 158.536094 
L 434.335826 160.296352 
L 434.623699 159.810887 
L 434.911572 158.617281 
L 435.199445 158.784732 
L 435.775191 161.523861 
L 436.063064 168.759135 
L 436.350937 168.92587 
L 436.63881 162.674796 
L 436.926683 164.589514 
L 437.214556 161.612583 
L 437.790302 162.114162 
L 438.078175 166.234384 
L 438.366048 165.903135 
L 438.653921 163.261468 
L 438.941794 162.536917 
L 439.229667 159.275596 
L 439.51754 161.596584 
L 439.805413 185.135389 
L 440.093286 245.604178 
L 440.381159 247.890133 
L 440.669032 248.740406 
L 440.956905 267.517995 
L 441.244778 267.459958 
L 441.532651 280.965026 
L 441.820524 285.263679 
L 442.108397 284.987815 
L 442.39627 284.968591 
L 442.684143 282.487196 
L 442.972016 285.16137 
L 443.547762 285.253693 
L 444.699254 278.992111 
L 444.987127 275.92908 
L 445.275 302.783674 
L 447.002238 296.657536 
L 447.865857 293.910384 
L 449.017349 289.661756 
L 450.168841 286.557213 
L 450.744587 285.579908 
L 451.608206 283.266463 
L 451.896079 282.489917 
L 452.471825 280.092811 
L 453.047571 278.837606 
L 453.623317 276.904834 
L 455.062682 271.701965 
L 455.350555 270.901034 
L 456.502047 266.506189 
L 457.365666 263.823794 
L 458.517158 259.292769 
L 459.092904 256.759524 
L 459.380777 254.074657 
L 461.108015 245.929929 
L 461.683761 241.63305 
L 461.971634 239.651901 
L 462.259507 238.569677 
L 462.835254 235.148966 
L 463.986746 228.444207 
L 464.274619 226.539042 
L 464.562492 226.723013 
L 465.138238 223.869232 
L 465.426111 224.594029 
L 466.28973 221.541605 
L 466.577603 217.666138 
L 466.865476 216.154733 
L 467.441222 212.10233 
L 467.729095 210.944836 
L 468.016968 208.22502 
L 468.304841 206.660377 
L 468.592714 203.872076 
L 468.880587 208.409654 
L 469.16846 208.155315 
L 470.607825 198.900863 
L 470.895698 197.814418 
L 471.471444 194.276695 
L 472.04719 189.524755 
L 472.622936 188.189756 
L 473.198682 183.226659 
L 473.486555 179.976458 
L 474.92592 170.42505 
L 475.213793 169.242063 
L 475.789539 164.965996 
L 476.365285 162.62313 
L 477.228904 156.058619 
L 478.380396 149.999014 
L 478.668269 150.06499 
L 478.956142 150.01157 
L 479.244015 147.404744 
L 479.819761 145.418652 
L 481.259126 136.520037 
L 481.546999 137.010576 
L 481.834872 135.875695 
L 482.410618 131.705526 
L 482.698491 126.477299 
L 482.986364 191.059464 
L 483.274237 193.874735 
L 483.849983 189.398963 
L 484.137856 186.960039 
L 484.425729 188.747917 
L 484.713602 195.210629 
L 485.001475 193.858352 
L 485.289348 193.523809 
L 485.865094 191.044538 
L 486.152967 190.512106 
L 486.44084 188.241947 
L 487.016586 187.237631 
L 487.304459 185.992125 
L 487.592332 187.221584 
L 488.455951 182.919153 
L 488.743824 183.823147 
L 489.031697 183.642943 
L 489.31957 183.647899 
L 489.895316 198.506417 
L 490.183189 197.609164 
L 491.046808 193.689783 
L 491.334681 192.876348 
L 492.486173 188.099919 
L 492.774046 187.420488 
L 493.349792 184.893589 
L 493.925538 182.187556 
L 496.516395 171.500387 
L 496.804268 180.910807 
L 497.380014 177.945252 
L 499.395126 166.59429 
L 501.122364 157.600571 
L 501.985983 154.039833 
L 503.713221 147.916645 
L 508.319189 136.264262 
L 510.046427 130.573507 
L 511.485792 126.028319 
L 515.228141 116.686187 
L 517.818998 108.534405 
L 518.394744 106.679278 
L 520.121982 102.90375 
L 522.137093 99.105983 
L 523.000712 97.178978 
L 523.288585 97.615425 
L 523.576458 98.441312 
L 524.72795 96.03091 
L 525.015823 98.598574 
L 525.303696 105.741347 
L 525.591569 105.167186 
L 525.879442 108.168133 
L 526.167315 107.609504 
L 526.455188 108.821417 
L 526.743061 111.773932 
L 528.758172 109.046889 
L 529.046045 108.650151 
L 529.333918 108.57418 
L 529.621791 112.364288 
L 530.773283 110.229049 
L 531.061156 113.324407 
L 531.636902 112.482903 
L 531.924775 112.595057 
L 533.364141 110.548163 
L 533.652014 128.519091 
L 534.22776 134.871077 
L 534.515633 146.15095 
L 534.803506 167.71333 
L 540.560966 163.925312 
L 540.848839 163.80756 
L 541.136712 163.543188 
L 541.424585 168.921319 
L 542.86395 167.777597 
L 543.151823 169.376028 
L 543.439696 178.020358 
L 544.591188 177.00796 
L 544.879061 176.92763 
L 545.74268 177.95002 
L 546.894172 180.88298 
L 547.757791 183.603702 
L 548.045664 182.121943 
L 550.060775 188.349451 
L 550.636521 190.649129 
L 550.924394 185.763421 
L 552.075886 189.438485 
L 552.939505 191.865591 
L 553.515251 194.004876 
L 553.803124 191.275253 
L 554.954616 194.763278 
L 555.818235 196.523051 
L 556.969727 198.937108 
L 557.833346 200.976111 
L 559.560584 203.922115 
L 561.575695 207.647772 
L 563.302933 210.207049 
L 563.878679 210.936191 
L 564.166552 211.208732 
L 565.605917 213.771792 
L 566.469536 215.366878 
L 567.333155 217.547689 
L 568.196775 219.665908 
L 569.63614 223.220091 
L 570.211886 224.790524 
L 571.075505 226.063627 
L 571.363378 226.417166 
L 572.802743 230.01222 
L 574.817854 236.087449 
L 577.696584 244.644852 
L 578.560203 247.156198 
L 582.590425 260.366534 
L 582.878298 261.461407 
L 583.166171 242.351671 
L 583.454044 232.838237 
L 583.741917 227.480248 
L 584.605536 230.587802 
L 584.893409 230.726417 
L 585.181282 231.772765 
L 585.469155 232.198326 
L 585.757028 225.399736 
L 587.484266 231.627081 
L 587.772139 229.51128 
L 588.347885 218.688481 
L 589.499377 225.295479 
L 589.78725 223.128401 
L 591.226615 231.434643 
L 591.514488 222.446665 
L 591.802361 223.185429 
L 593.241726 232.087995 
L 593.529599 228.272925 
L 594.105345 231.770044 
L 594.681091 222.204275 
L 594.968964 220.153412 
L 595.54471 198.287546 
L 596.120456 201.776914 
L 596.408329 202.753588 
L 599.287059 219.554219 
L 599.574932 218.841668 
L 602.741536 238.468244 
L 603.029409 238.352323 
L 603.317282 238.733879 
L 603.893028 234.524114 
L 604.180901 236.354421 
L 604.468774 235.471193 
L 604.756647 237.294153 
L 605.04452 236.448746 
L 605.332393 224.230221 
L 605.620266 220.155605 
L 605.908139 212.477898 
L 606.483885 163.726875 
L 606.771758 155.118989 
L 609.074742 167.191371 
L 613.104964 184.955805 
L 614.256456 190.406839 
L 614.544329 190.814415 
L 614.832202 188.749554 
L 615.120075 187.985971 
L 615.407948 179.917986 
L 615.695821 181.538103 
L 615.983694 174.145035 
L 616.271567 175.056787 
L 616.55944 175.473329 
L 617.423059 179.419934 
L 617.710932 180.031402 
L 619.150297 186.957738 
L 619.726043 170.715774 
L 620.013916 155.541876 
L 620.877535 159.87631 
L 621.165408 160.213074 
L 621.453281 149.602871 
L 622.604773 155.700959 
L 622.892646 149.355134 
L 623.180519 115.536297 
L 623.468392 58.310988 
L 623.756265 53.451207 
L 624.044138 53.730661 
L 624.332011 38.817188 
L 624.619884 39.166803 
L 632.392455 79.067181 
L 635.271185 92.20809 
L 636.71055 99.307802 
L 640.4529 116.60467 
L 643.33163 131.732481 
L 646.21036 147.615304 
L 649.08909 163.803574 
L 650.240582 170.616019 
L 650.528455 171.677332 
L 651.96782 179.795824 
L 653.119312 184.94547 
L 656.285915 197.799348 
L 659.740391 211.206998 
L 662.619121 224.326677 
L 665.209978 236.387689 
L 669.2402 253.878856 
L 675.86128 288.662662 
L 676.149153 281.801475 
L 676.437026 279.413947 
L 680.179375 300.330212 
L 680.467248 300.516385 
L 680.755121 297.932597 
L 682.770232 309.245786 
L 684.785343 320.209939 
L 685.073216 320.936848 
L 685.361089 322.439728 
L 685.648962 321.642606 
L 685.936835 312.108018 
L 686.512581 315.579832 
L 686.800454 313.912786 
L 687.088327 305.909067 
L 687.3762 305.539572 
L 687.664073 306.713663 
L 687.951946 277.563691 
L 688.239819 268.77953 
L 689.103438 273.626878 
L 689.391311 273.13402 
L 689.679184 270.272621 
L 689.967057 272.040043 
L 690.25493 272.279641 
L 690.542803 273.305218 
L 691.118549 276.767653 
L 691.406422 275.082137 
L 691.982168 278.528537 
L 692.270041 275.86498 
L 692.557914 260.877108 
L 692.845787 261.238538 
L 693.13366 260.185264 
L 693.421533 260.369613 
L 693.709406 245.054857 
L 693.997279 215.802757 
L 694.285152 217.562573 
L 694.573025 209.348342 
L 694.860898 211.008552 
L 695.148771 210.581738 
L 696.01239 215.897621 
L 696.300263 214.397911 
L 696.588136 196.26201 
L 696.876009 187.002298 
L 697.163882 187.926079 
L 698.027501 193.28587 
L 698.315374 189.07808 
L 698.89112 192.688614 
L 699.466866 174.394004 
L 699.754739 174.755478 
L 700.906231 181.246448 
L 701.194104 180.298272 
L 701.481977 181.768418 
L 701.76985 181.322974 
L 702.345596 184.525047 
L 702.633469 185.000449 
L 703.497088 189.747498 
L 703.784961 184.028938 
L 704.072834 182.916235 
L 704.360707 184.001788 
L 705.800072 191.448172 
L 710.981787 217.553332 
L 711.845406 221.823179 
L 714.14839 234.745387 
L 714.436263 235.022448 
L 714.724136 235.082487 
L 715.012009 236.89989 
L 715.299882 219.365011 
L 715.587755 219.952809 
L 715.875628 221.755501 
L 716.163501 217.511886 
L 718.178612 229.494784 
L 718.466485 226.49523 
L 719.042231 207.306425 
L 719.330104 189.184456 
L 719.617977 184.029487 
L 719.90585 181.129395 
L 720.193723 166.328883 
L 720.481596 167.980382 
L 720.769469 155.782079 
L 723.360326 170.28085 
L 723.648199 162.662023 
L 723.936072 162.323206 
L 724.223945 137.979236 
L 724.799691 140.546931 
L 725.951183 144.284821 
L 727.102675 147.557167 
L 727.678421 148.848956 
L 728.829913 150.440841 
L 729.405659 151.138945 
L 730.557151 153.387671 
L 731.132897 154.898278 
L 733.148008 159.563814 
L 734.875246 162.454572 
L 735.738865 164.166709 
L 737.466103 166.305691 
L 738.617595 169.125717 
L 740.632706 174.793923 
L 741.496325 177.680253 
L 742.935691 183.040146 
L 743.79931 186.855999 
L 744.950802 191.172176 
L 747.253786 201.574819 
L 748.405278 206.033314 
L 748.693151 203.985064 
L 748.981024 194.845511 
L 749.268897 190.007177 
L 752.723373 202.228848 
L 754.738484 208.772362 
L 758.768706 224.42107 
L 761.647436 238.107694 
L 763.086801 246.150888 
L 763.374674 232.628767 
L 763.662547 228.823695 
L 763.95042 230.435014 
L 764.238293 228.128363 
L 764.526166 226.758474 
L 766.541277 235.315631 
L 766.82915 235.910357 
L 770.571499 252.007322 
L 771.722991 258.513644 
L 772.874483 264.211503 
L 773.162356 255.95399 
L 775.753213 269.067232 
L 777.768325 278.00736 
L 779.783436 288.088353 
L 780.071309 288.340573 
L 780.359182 285.028806 
L 780.647055 271.822049 
L 780.934928 271.657986 
L 781.222801 273.359988 
L 781.510674 270.281197 
L 781.798547 271.334046 
L 782.662166 276.261294 
L 782.950039 264.5352 
L 784.389404 272.660567 
L 788.419626 294.065423 
L 788.707499 290.958827 
L 789.571118 296.143467 
L 789.858991 284.276881 
L 790.146864 284.04374 
L 790.434737 285.712081 
L 790.72261 265.72286 
L 791.010483 266.186788 
L 792.449848 273.415864 
L 793.889213 280.794221 
L 794.464959 274.209945 
L 795.328578 278.628449 
L 796.192197 282.728653 
L 796.767943 285.623364 
L 797.055816 275.67225 
L 797.343689 231.45744 
L 797.631562 230.340626 
L 797.919435 228.408115 
L 798.783054 231.967747 
L 799.646673 233.473034 
L 800.222419 233.97953 
L 801.086038 234.327333 
L 801.373911 234.286984 
L 801.661784 233.964495 
L 802.525403 232.293594 
L 803.101149 231.626276 
L 803.389022 231.563787 
L 804.540514 230.658402 
L 804.828387 230.184929 
L 805.692006 229.645148 
L 806.267752 228.882037 
L 806.843498 228.078005 
L 807.419244 227.700278 
L 808.282863 226.530363 
L 808.858609 225.255431 
L 810.010101 222.705787 
L 810.87372 221.660673 
L 811.449466 220.86999 
L 812.025213 220.003571 
L 813.176705 218.929397 
L 813.176705 218.929397 
" clip-path="url(#pe5357325ff)" style="fill: none; stroke: #f77189; stroke-width: 2.5; stroke-linecap: round"/>
   </g>
   <g id="line2d_15">
    <path d="M 77.373295 244.54582 
L 78.81266 237.486438 
L 79.100534 241.498784 
L 79.388407 249.545173 
L 79.67628 250.383238 
L 79.964153 249.02577 
L 80.252026 251.281043 
L 80.827772 248.210905 
L 81.115645 251.773195 
L 81.403518 251.131146 
L 81.691391 258.520113 
L 82.842883 252.651765 
L 83.130756 266.295628 
L 85.145867 255.422174 
L 85.43374 254.867847 
L 86.873105 247.181517 
L 88.024597 241.731681 
L 95.509295 206.491046 
L 96.085041 230.626505 
L 96.372914 231.467567 
L 98.675898 221.228504 
L 102.993993 204.456264 
L 103.569739 202.756807 
L 105.009104 200.281094 
L 106.736342 197.624783 
L 110.478691 189.410994 
L 112.493802 184.350291 
L 113.069548 183.089959 
L 113.357421 186.313694 
L 113.645294 190.946488 
L 113.933168 191.371371 
L 114.221041 190.832667 
L 114.508914 196.122785 
L 114.796787 204.261261 
L 115.372533 203.852299 
L 115.660406 204.390266 
L 115.948279 208.701982 
L 116.811898 208.482399 
L 117.099771 208.332174 
L 117.387644 208.330817 
L 117.675517 211.532405 
L 118.539136 211.511172 
L 119.114882 211.676776 
L 119.402755 202.568055 
L 119.690628 200.576993 
L 120.266374 200.988527 
L 121.705739 201.650484 
L 123.432977 201.840108 
L 124.296596 202.517865 
L 124.872342 203.191604 
L 125.160215 202.72963 
L 125.448088 198.965991 
L 125.735961 192.117419 
L 126.311707 192.828649 
L 126.59958 188.913771 
L 127.175326 170.427671 
L 127.463199 169.440448 
L 127.751072 167.142278 
L 128.326818 148.204519 
L 130.629802 152.579083 
L 132.35704 155.714536 
L 134.084278 158.779142 
L 134.947897 159.673994 
L 135.811516 160.639438 
L 136.387262 160.993849 
L 138.690246 162.397933 
L 139.553865 163.431295 
L 140.705357 165.431321 
L 143.584087 170.552259 
L 145.311325 173.301318 
L 146.75069 175.064795 
L 148.765802 177.358018 
L 150.49304 180.236584 
L 152.796024 183.918706 
L 153.947516 185.481558 
L 155.386881 186.742876 
L 156.538373 187.72062 
L 157.977738 188.88867 
L 158.841357 189.68296 
L 160.280722 191.238493 
L 163.159452 193.647472 
L 168.916912 201.275801 
L 170.356277 203.893289 
L 174.386499 216.032453 
L 174.962245 218.014046 
L 177.265229 227.875861 
L 177.553102 229.217736 
L 177.840975 229.500389 
L 178.128848 213.589032 
L 179.568213 218.875647 
L 182.15907 228.187349 
L 183.886309 234.476688 
L 185.037801 238.631813 
L 187.340785 249.323999 
L 191.083134 267.808831 
L 193.098245 278.779904 
L 193.386118 263.767289 
L 195.401229 274.981668 
L 195.689102 275.063848 
L 195.976975 273.70899 
L 196.264848 269.351563 
L 198.567832 281.153844 
L 200.29507 289.725647 
L 200.582943 280.979661 
L 201.446562 285.494098 
L 201.734435 286.110956 
L 202.885927 291.462381 
L 203.1738 291.925593 
L 203.461673 289.407412 
L 203.749546 289.608088 
L 205.188911 293.096991 
L 206.340403 296.797009 
L 206.628276 297.285462 
L 206.916149 292.122703 
L 207.204022 293.204883 
L 207.491895 288.909259 
L 208.067641 290.346254 
L 208.355514 288.343403 
L 208.643387 232.41708 
L 208.93126 232.586661 
L 209.219133 233.386761 
L 209.507006 230.294812 
L 213.249355 240.286111 
L 215.840212 246.934508 
L 216.991704 250.966054 
L 218.143196 255.018716 
L 219.870435 260.588889 
L 221.885546 262.866352 
L 222.173419 263.376311 
L 224.18853 265.26257 
L 225.052149 265.384335 
L 226.203641 266.138849 
L 226.779387 266.640016 
L 228.506625 268.902743 
L 229.370244 269.842861 
L 229.94599 270.216344 
L 231.097482 270.47975 
L 231.673228 270.453783 
L 232.248974 270.127779 
L 232.82472 269.772361 
L 233.112593 269.438635 
L 233.400466 275.676593 
L 233.688339 275.386026 
L 234.264085 274.533447 
L 235.415577 273.426459 
L 236.854942 271.802882 
L 237.142815 283.582936 
L 237.430688 287.091718 
L 238.870053 285.683862 
L 239.445799 285.538208 
L 240.885164 284.43606 
L 242.036656 284.269542 
L 242.324529 284.350964 
L 243.476021 285.169382 
L 244.33964 285.491252 
L 245.203259 285.488113 
L 245.491132 286.296571 
L 246.066878 290.367045 
L 246.354751 290.412257 
L 246.642624 288.297199 
L 247.21837 288.387001 
L 248.081989 289.002401 
L 248.369862 288.366845 
L 248.657735 277.183998 
L 249.521354 277.659104 
L 251.824338 279.229637 
L 252.97583 280.238824 
L 253.263703 280.339757 
L 254.990942 280.177283 
L 257.006053 280.35321 
L 259.021164 281.095627 
L 259.59691 281.771515 
L 261.899894 285.254918 
L 264.490751 289.284344 
L 266.505862 293.149818 
L 267.081608 294.296166 
L 267.369481 281.658254 
L 267.657354 279.08784 
L 267.945227 279.933498 
L 268.2331 277.920977 
L 268.808846 278.801297 
L 269.096719 267.719282 
L 269.960338 269.177294 
L 270.248211 267.176336 
L 270.823957 268.175993 
L 271.399703 263.327305 
L 271.687576 241.525192 
L 272.263322 242.586852 
L 273.126941 244.521546 
L 273.414814 243.736564 
L 273.702687 237.595294 
L 273.99056 237.845737 
L 274.566306 239.31524 
L 274.854179 235.434894 
L 275.142052 226.83622 
L 275.429925 226.557896 
L 275.717798 227.291307 
L 276.005671 220.996161 
L 276.293544 221.700074 
L 276.86929 223.849576 
L 277.157163 221.457063 
L 278.020782 224.389738 
L 278.596528 226.249704 
L 278.884401 223.45585 
L 283.202496 239.05864 
L 283.778242 222.144526 
L 284.066115 221.968363 
L 284.353988 219.249252 
L 285.793353 224.748176 
L 286.081226 222.273287 
L 286.369099 216.336507 
L 286.656972 217.455492 
L 286.944845 216.591678 
L 287.232718 217.08034 
L 287.520591 213.159411 
L 287.808464 213.80165 
L 288.096337 213.98899 
L 288.384211 208.376373 
L 288.672084 206.744792 
L 288.959957 207.874592 
L 289.24783 207.418912 
L 289.823576 200.523571 
L 290.111449 199.419878 
L 291.838687 205.25945 
L 295.581036 216.861027 
L 298.747639 225.771964 
L 299.035512 219.89681 
L 299.323385 220.258623 
L 299.611258 221.031212 
L 299.899131 220.413959 
L 300.474877 221.970913 
L 300.76275 221.868059 
L 301.338496 223.23064 
L 301.626369 221.26936 
L 301.914242 222.125924 
L 302.202115 220.185625 
L 302.489988 221.013972 
L 302.777861 220.722661 
L 304.217226 225.109963 
L 307.383829 235.63619 
L 307.959575 237.574538 
L 308.535321 235.918608 
L 309.111067 239.421151 
L 309.39894 221.462349 
L 309.686813 223.297056 
L 309.974686 202.282522 
L 310.838305 207.452772 
L 311.126178 205.466662 
L 312.853416 215.183517 
L 313.141289 190.802676 
L 313.429162 192.643322 
L 313.717035 184.885922 
L 315.732146 197.189598 
L 317.171511 205.750707 
L 317.459384 205.881433 
L 317.747257 207.655989 
L 318.03513 199.091764 
L 319.186622 206.071205 
L 319.474495 207.132435 
L 319.762368 197.702638 
L 320.050241 183.225782 
L 320.338114 184.220598 
L 320.625987 184.617706 
L 320.91386 179.91667 
L 321.201733 177.930405 
L 321.489606 179.740545 
L 321.777479 145.078638 
L 324.65621 162.064431 
L 325.231956 165.452358 
L 325.519829 158.208131 
L 326.959194 166.416364 
L 328.974305 177.064286 
L 329.262178 177.57647 
L 329.550051 179.213243 
L 329.837924 174.296073 
L 331.277289 181.892228 
L 332.716654 189.230697 
L 336.459003 208.836692 
L 338.761987 220.77092 
L 339.04986 220.213738 
L 341.064971 230.84817 
L 341.352844 230.745111 
L 344.231574 246.105571 
L 344.519447 246.931593 
L 345.095193 249.687679 
L 345.383066 251.197544 
L 345.670939 246.26092 
L 345.958812 243.65142 
L 346.246685 244.699772 
L 346.534558 246.243298 
L 346.822431 243.388345 
L 347.398177 234.927573 
L 352.867764 261.874934 
L 357.473732 284.878425 
L 358.625225 290.939258 
L 359.776717 297.808536 
L 360.06459 297.096713 
L 361.216082 303.634538 
L 363.231193 314.92314 
L 364.094812 319.697398 
L 364.382685 315.418539 
L 367.837161 334.784906 
L 368.125034 335.432932 
L 368.412907 333.421675 
L 368.70078 332.450673 
L 368.988653 330.586153 
L 369.276526 331.800217 
L 371.003764 342.234278 
L 371.291637 342.224335 
L 371.867383 337.938208 
L 372.155256 322.855525 
L 372.443129 323.105789 
L 372.731002 324.910232 
L 373.018875 325.428416 
L 373.594621 328.496434 
L 373.882494 327.307258 
L 374.170367 329.033988 
L 374.45824 328.241729 
L 374.746113 328.381422 
L 375.609732 333.766818 
L 375.897605 330.197282 
L 376.185478 330.249618 
L 376.473351 322.122225 
L 377.049097 325.512371 
L 377.33697 321.294659 
L 377.624843 319.717818 
L 377.912716 321.565856 
L 378.200589 317.914178 
L 378.488462 316.339621 
L 379.352081 321.700108 
L 379.639954 313.69308 
L 379.927827 310.762126 
L 381.942938 321.96452 
L 382.806557 326.669511 
L 383.09443 320.645761 
L 383.382303 318.549817 
L 384.821668 326.484076 
L 386.836779 337.011667 
L 387.124652 330.476172 
L 387.412525 328.324714 
L 387.700398 328.420393 
L 387.988271 328.387573 
L 388.564017 292.555141 
L 388.85189 292.146907 
L 389.715509 296.25381 
L 390.003382 293.267376 
L 390.291255 294.687893 
L 390.579128 291.359084 
L 390.867001 280.942728 
L 391.154874 259.292237 
L 391.442747 260.746148 
L 391.73062 253.855029 
L 392.018493 252.522326 
L 392.306366 230.445564 
L 392.594239 229.01383 
L 393.169986 220.075056 
L 394.033605 222.863506 
L 394.609351 223.902335 
L 395.185097 224.100635 
L 395.47297 224.18898 
L 395.760843 224.403427 
L 396.624462 225.905314 
L 396.912335 226.142899 
L 398.927446 228.948992 
L 399.215319 229.120587 
L 400.366811 230.566618 
L 400.654684 231.15087 
L 402.094049 232.858752 
L 402.381922 232.959643 
L 402.669795 232.922791 
L 403.821287 233.85389 
L 404.684906 233.583772 
L 406.700017 231.574715 
L 407.275763 230.329285 
L 408.715128 226.643282 
L 409.578747 225.350885 
L 409.86662 225.241179 
L 410.730239 224.428334 
L 411.593858 222.904445 
L 413.033223 219.475864 
L 415.048334 214.048435 
L 416.487699 211.012455 
L 419.078556 207.534553 
L 421.093667 204.035417 
L 421.669413 202.744341 
L 423.972397 196.117282 
L 425.699635 192.59027 
L 425.987508 192.168745 
L 428.578366 185.168882 
L 429.729858 180.924265 
L 430.305604 177.962148 
L 430.593477 193.519153 
L 431.457096 189.615702 
L 432.608588 185.996076 
L 432.896461 185.394322 
L 433.472207 183.835242 
L 434.623699 181.278077 
L 434.911572 180.481897 
L 435.199445 182.528366 
L 435.775191 181.472961 
L 436.350937 180.730563 
L 438.078175 177.402819 
L 438.653921 176.88496 
L 439.229667 175.62112 
L 439.51754 179.466789 
L 439.805413 205.586661 
L 440.093286 273.284 
L 440.381159 275.378444 
L 440.669032 274.190765 
L 440.956905 296.41822 
L 441.244778 295.204846 
L 441.532651 310.390034 
L 442.684143 306.610708 
L 444.699254 300.322786 
L 446.426492 293.873231 
L 447.290111 291.353473 
L 448.15373 288.610383 
L 449.017349 285.735153 
L 450.168841 282.723339 
L 451.320333 280.522412 
L 452.183952 278.196597 
L 453.047571 275.475486 
L 454.774809 270.200871 
L 457.653539 260.52726 
L 459.092904 255.546404 
L 461.971634 242.210589 
L 464.274619 230.565146 
L 464.562492 231.964476 
L 465.426111 227.807442 
L 466.865476 221.70368 
L 468.592714 213.058959 
L 468.880587 218.287469 
L 472.910809 198.946293 
L 475.213793 186.27354 
L 481.259126 152.331209 
L 482.698491 145.400775 
L 482.986364 212.417486 
L 484.137856 205.675968 
L 484.425729 206.535439 
L 484.713602 212.475186 
L 485.001475 211.161781 
L 485.289348 210.425856 
L 485.865094 207.054342 
L 486.152967 207.032134 
L 487.304459 200.072006 
L 487.592332 201.055622 
L 488.455951 195.886098 
L 488.743824 196.03763 
L 489.031697 194.398037 
L 489.31957 194.296775 
L 489.895316 208.804117 
L 496.516395 171.500387 
L 496.804268 180.910807 
L 497.380014 177.945252 
L 499.395126 166.59429 
L 501.122364 157.600571 
L 501.985983 154.039833 
L 503.713221 147.916645 
L 508.319189 136.264262 
L 510.046427 130.573507 
L 511.485792 126.028319 
L 515.228141 116.686187 
L 517.818998 108.534405 
L 518.394744 106.679278 
L 520.121982 102.90375 
L 522.137093 99.105983 
L 523.000712 97.178978 
L 523.288585 97.615425 
L 523.576458 98.441312 
L 524.72795 96.03091 
L 525.015823 98.598574 
L 525.303696 105.741347 
L 525.591569 105.167186 
L 525.879442 108.168133 
L 526.167315 107.609504 
L 526.455188 108.821417 
L 526.743061 111.773932 
L 528.758172 109.046889 
L 529.046045 108.650151 
L 529.333918 108.57418 
L 529.621791 112.364288 
L 530.773283 110.229049 
L 531.061156 113.324407 
L 531.636902 112.482903 
L 531.924775 112.595057 
L 533.364141 110.548163 
L 533.652014 128.519091 
L 534.22776 134.871077 
L 534.515633 146.15095 
L 534.803506 167.71333 
L 540.560966 163.925312 
L 540.848839 163.80756 
L 541.136712 163.543188 
L 541.424585 168.921319 
L 542.86395 167.777597 
L 543.151823 169.376028 
L 543.439696 178.020358 
L 544.591188 177.00796 
L 544.879061 176.92763 
L 545.74268 177.95002 
L 546.894172 180.88298 
L 547.757791 183.603702 
L 548.045664 182.121943 
L 550.060775 188.349451 
L 550.636521 190.649129 
L 550.924394 185.763421 
L 552.075886 189.438485 
L 552.939505 191.865591 
L 553.515251 194.004876 
L 553.803124 191.275253 
L 554.954616 194.763278 
L 555.818235 196.523051 
L 556.969727 198.937108 
L 557.833346 200.976111 
L 559.560584 203.922115 
L 561.575695 207.647772 
L 563.302933 210.207049 
L 563.878679 210.936191 
L 564.166552 211.208732 
L 565.605917 213.771792 
L 566.469536 215.366878 
L 567.333155 217.547689 
L 568.196775 219.665908 
L 569.63614 223.220091 
L 570.211886 224.790524 
L 571.075505 226.063627 
L 571.363378 226.417166 
L 572.802743 230.01222 
L 574.817854 236.087449 
L 577.696584 244.644852 
L 578.560203 247.156198 
L 582.590425 260.366534 
L 582.878298 261.461407 
L 583.166171 242.351671 
L 583.454044 232.838237 
L 583.741917 227.480248 
L 584.605536 230.587802 
L 584.893409 230.726417 
L 585.181282 231.772765 
L 585.469155 232.198326 
L 585.757028 225.399736 
L 587.484266 231.627081 
L 587.772139 229.51128 
L 588.347885 218.688481 
L 589.499377 225.295479 
L 589.78725 223.128401 
L 591.226615 231.434643 
L 591.514488 222.446665 
L 591.802361 223.185429 
L 593.241726 232.087995 
L 593.529599 228.272925 
L 594.105345 231.770044 
L 594.681091 222.204275 
L 594.968964 220.153412 
L 595.54471 198.287546 
L 596.120456 201.776914 
L 596.408329 202.753588 
L 599.287059 219.554219 
L 599.574932 218.841668 
L 602.741536 238.468244 
L 603.029409 238.352323 
L 603.317282 238.733879 
L 603.893028 234.524114 
L 604.180901 236.354421 
L 604.468774 235.471193 
L 604.756647 237.294153 
L 605.04452 236.448746 
L 605.332393 224.230221 
L 605.620266 220.155605 
L 605.908139 212.477898 
L 606.483885 163.726875 
L 606.771758 155.118989 
L 609.074742 167.191371 
L 613.104964 184.955805 
L 614.256456 190.406839 
L 614.544329 190.814415 
L 614.832202 188.749554 
L 615.120075 187.985971 
L 615.407948 179.917986 
L 615.695821 181.538103 
L 615.983694 174.145035 
L 616.271567 175.056787 
L 616.55944 175.473329 
L 617.423059 179.419934 
L 617.710932 180.031402 
L 619.150297 186.957738 
L 619.726043 170.715774 
L 620.013916 155.541876 
L 620.877535 159.87631 
L 621.165408 160.213074 
L 621.453281 149.602871 
L 622.604773 155.700959 
L 622.892646 149.355134 
L 623.180519 115.536297 
L 623.468392 58.310988 
L 623.756265 53.451207 
L 624.044138 53.730661 
L 624.332011 38.817188 
L 624.619884 39.166803 
L 632.392455 79.067181 
L 635.271185 92.20809 
L 636.71055 99.307802 
L 640.4529 116.60467 
L 643.33163 131.732481 
L 646.21036 147.615304 
L 649.08909 163.803574 
L 650.240582 170.616019 
L 650.528455 171.677332 
L 651.96782 179.795824 
L 653.119312 184.94547 
L 656.285915 197.799348 
L 659.740391 211.206998 
L 662.619121 224.326677 
L 665.209978 236.387689 
L 669.2402 253.878856 
L 675.86128 288.662662 
L 676.149153 281.801475 
L 676.437026 279.413947 
L 680.179375 300.330212 
L 680.467248 300.516385 
L 680.755121 297.932597 
L 682.770232 309.245786 
L 684.785343 320.209939 
L 685.073216 320.936848 
L 685.361089 322.439728 
L 685.648962 321.642606 
L 685.936835 312.108018 
L 686.512581 315.579832 
L 686.800454 313.912786 
L 687.088327 305.909067 
L 687.3762 305.539572 
L 687.664073 306.713663 
L 687.951946 277.563691 
L 688.239819 268.77953 
L 689.103438 273.626878 
L 689.391311 273.13402 
L 689.679184 270.272621 
L 689.967057 272.040043 
L 690.25493 272.279641 
L 690.542803 273.305218 
L 691.118549 276.767653 
L 691.406422 275.082137 
L 691.982168 278.528537 
L 692.270041 275.86498 
L 692.557914 260.877108 
L 692.845787 261.238538 
L 693.13366 260.185264 
L 693.421533 260.369613 
L 693.709406 245.054857 
L 693.997279 215.802757 
L 694.285152 217.562573 
L 694.573025 209.348342 
L 694.860898 211.008552 
L 695.148771 210.581738 
L 696.01239 215.897621 
L 696.300263 214.397911 
L 696.588136 196.26201 
L 696.876009 187.002298 
L 697.163882 187.926079 
L 698.027501 193.28587 
L 698.315374 189.07808 
L 698.89112 192.688614 
L 699.466866 174.394004 
L 699.754739 174.755478 
L 700.906231 181.246448 
L 701.194104 180.298272 
L 701.481977 181.768418 
L 701.76985 181.322974 
L 702.345596 184.525047 
L 702.633469 185.000449 
L 703.497088 189.747498 
L 703.784961 184.028938 
L 704.072834 182.916235 
L 704.360707 184.001788 
L 705.800072 191.448172 
L 710.981787 217.553332 
L 711.845406 221.823179 
L 714.14839 234.745387 
L 714.436263 235.022448 
L 714.724136 235.082487 
L 715.012009 236.89989 
L 715.299882 219.365011 
L 715.587755 219.952809 
L 715.875628 221.755501 
L 716.163501 217.511886 
L 718.178612 229.494784 
L 718.466485 226.49523 
L 719.042231 207.306425 
L 719.330104 189.184456 
L 719.617977 184.029487 
L 719.90585 181.129395 
L 720.193723 166.328883 
L 720.481596 167.980382 
L 720.769469 155.782079 
L 723.360326 170.28085 
L 723.648199 162.662023 
L 723.936072 162.323206 
L 724.223945 137.979236 
L 724.799691 140.546931 
L 725.951183 144.284821 
L 727.102675 147.557167 
L 727.678421 148.848956 
L 728.829913 150.440841 
L 729.405659 151.138945 
L 730.557151 153.387671 
L 731.132897 154.898278 
L 733.148008 159.563814 
L 734.875246 162.454572 
L 735.738865 164.166709 
L 737.466103 166.305691 
L 738.617595 169.125717 
L 740.632706 174.793923 
L 741.496325 177.680253 
L 742.935691 183.040146 
L 743.79931 186.855999 
L 744.950802 191.172176 
L 747.253786 201.574819 
L 748.405278 206.033314 
L 748.693151 203.985064 
L 748.981024 194.845511 
L 749.268897 190.007177 
L 752.723373 202.228848 
L 754.738484 208.772362 
L 758.768706 224.42107 
L 761.647436 238.107694 
L 763.086801 246.150888 
L 763.374674 232.628767 
L 763.662547 228.823695 
L 763.95042 230.435014 
L 764.238293 228.128363 
L 764.526166 226.758474 
L 766.541277 235.315631 
L 766.82915 235.910357 
L 770.571499 252.007322 
L 771.722991 258.513644 
L 772.874483 264.211503 
L 773.162356 255.95399 
L 775.753213 269.067232 
L 777.768325 278.00736 
L 779.783436 288.088353 
L 780.071309 288.340573 
L 780.359182 285.028806 
L 780.647055 271.822049 
L 780.934928 271.657986 
L 781.222801 273.359988 
L 781.510674 270.281197 
L 781.798547 271.334046 
L 782.662166 276.261294 
L 782.950039 264.5352 
L 784.389404 272.660567 
L 788.419626 294.065423 
L 788.707499 290.958827 
L 789.571118 296.143467 
L 789.858991 284.276881 
L 790.146864 284.04374 
L 790.434737 285.712081 
L 790.72261 265.72286 
L 791.010483 266.186788 
L 792.449848 273.415864 
L 793.889213 280.794221 
L 794.464959 274.209945 
L 795.328578 278.628449 
L 796.192197 282.728653 
L 796.767943 285.623364 
L 797.055816 275.67225 
L 797.343689 231.45744 
L 797.631562 230.340626 
L 797.919435 228.408115 
L 798.783054 231.967747 
L 799.646673 233.473034 
L 800.222419 233.97953 
L 801.086038 234.327333 
L 801.373911 234.286984 
L 801.661784 233.964495 
L 802.525403 232.293594 
L 803.101149 231.626276 
L 803.389022 231.563787 
L 804.540514 230.658402 
L 804.828387 230.184929 
L 805.692006 229.645148 
L 806.267752 228.882037 
L 806.843498 228.078005 
L 807.419244 227.700278 
L 808.282863 226.530363 
L 808.858609 225.255431 
L 810.010101 222.705787 
L 810.87372 221.660673 
L 811.449466 220.86999 
L 812.025213 220.003571 
L 813.176705 218.929397 
L 813.176705 218.929397 
" clip-path="url(#pe5357325ff)" style="fill: none; stroke-dasharray: 10,3.75; stroke-dashoffset: 0; stroke: #bb9832; stroke-width: 2.5"/>
   </g>
   <g id="line2d_16"/>
   <g id="line2d_17"/>
   <g id="patch_3">
    <path d="M 40.583125 362.755326 
L 40.583125 23.391562 
" style="fill: none; stroke: #cccccc; stroke-width: 0.8; stroke-linejoin: miter; stroke-linecap: square"/>
   </g>
   <g id="patch_4">
    <path d="M 849.966875 362.755326 
L 849.966875 23.391562 
" style="fill: none; stroke: #cccccc; stroke-width: 0.8; stroke-linejoin: miter; stroke-linecap: square"/>
   </g>
   <g id="patch_5">
    <path d="M 40.583125 362.755326 
L 849.966875 362.755326 
" style="fill: none; stroke: #cccccc; stroke-width: 0.8; stroke-linejoin: miter; stroke-linecap: square"/>
   </g>
   <g id="patch_6">
    <path d="M 40.583125 23.391562 
L 849.966875 23.391562 
" style="fill: none; stroke: #cccccc; stroke-width: 0.8; stroke-linejoin: miter; stroke-linecap: square"/>
   </g>
   <g id="text_16">
    <!-- Performance Comparison: Dynamic vs Uniform DCA -->
    <g style="fill: #262626" transform="translate(270.629375 17.391562) scale(0.14 -0.14)">
     <defs>
      <path id="Arial-BoldMT-50" d="M 466 0 
L 466 4581 
L 1950 4581 
Q 2794 4581 3050 4513 
Q 3444 4409 3709 4064 
Q 3975 3719 3975 3172 
Q 3975 2750 3822 2462 
Q 3669 2175 3433 2011 
Q 3197 1847 2953 1794 
Q 2622 1728 1994 1728 
L 1391 1728 
L 1391 0 
L 466 0 
z
M 1391 3806 
L 1391 2506 
L 1897 2506 
Q 2444 2506 2628 2578 
Q 2813 2650 2917 2803 
Q 3022 2956 3022 3159 
Q 3022 3409 2875 3571 
Q 2728 3734 2503 3775 
Q 2338 3806 1838 3806 
L 1391 3806 
z
" transform="scale(0.015625)"/>
      <path id="Arial-BoldMT-65" d="M 2381 1056 
L 3256 909 
Q 3088 428 2723 176 
Q 2359 -75 1813 -75 
Q 947 -75 531 491 
Q 203 944 203 1634 
Q 203 2459 634 2926 
Q 1066 3394 1725 3394 
Q 2466 3394 2894 2905 
Q 3322 2416 3303 1406 
L 1103 1406 
Q 1113 1016 1316 798 
Q 1519 581 1822 581 
Q 2028 581 2168 693 
Q 2309 806 2381 1056 
z
M 2431 1944 
Q 2422 2325 2234 2523 
Q 2047 2722 1778 2722 
Q 1491 2722 1303 2513 
Q 1116 2303 1119 1944 
L 2431 1944 
z
" transform="scale(0.015625)"/>
      <path id="Arial-BoldMT-72" d="M 1300 0 
L 422 0 
L 422 3319 
L 1238 3319 
L 1238 2847 
Q 1447 3181 1614 3287 
Q 1781 3394 1994 3394 
Q 2294 3394 2572 3228 
L 2300 2463 
Q 2078 2606 1888 2606 
Q 1703 2606 1575 2504 
Q 1447 2403 1373 2137 
Q 1300 1872 1300 1025 
L 1300 0 
z
" transform="scale(0.015625)"/>
      <path id="Arial-BoldMT-66" d="M 75 3319 
L 563 3319 
L 563 3569 
Q 563 3988 652 4194 
Q 741 4400 980 4529 
Q 1219 4659 1584 4659 
Q 1959 4659 2319 4547 
L 2200 3934 
Q 1991 3984 1797 3984 
Q 1606 3984 1523 3895 
Q 1441 3806 1441 3553 
L 1441 3319 
L 2097 3319 
L 2097 2628 
L 1441 2628 
L 1441 0 
L 563 0 
L 563 2628 
L 75 2628 
L 75 3319 
z
" transform="scale(0.015625)"/>
      <path id="Arial-BoldMT-6f" d="M 256 1706 
Q 256 2144 472 2553 
Q 688 2963 1083 3178 
Q 1478 3394 1966 3394 
Q 2719 3394 3200 2905 
Q 3681 2416 3681 1669 
Q 3681 916 3195 420 
Q 2709 -75 1972 -75 
Q 1516 -75 1102 131 
Q 688 338 472 736 
Q 256 1134 256 1706 
z
M 1156 1659 
Q 1156 1166 1390 903 
Q 1625 641 1969 641 
Q 2313 641 2545 903 
Q 2778 1166 2778 1666 
Q 2778 2153 2545 2415 
Q 2313 2678 1969 2678 
Q 1625 2678 1390 2415 
Q 1156 2153 1156 1659 
z
" transform="scale(0.015625)"/>
      <path id="Arial-BoldMT-6d" d="M 394 3319 
L 1203 3319 
L 1203 2866 
Q 1638 3394 2238 3394 
Q 2556 3394 2790 3262 
Q 3025 3131 3175 2866 
Q 3394 3131 3647 3262 
Q 3900 3394 4188 3394 
Q 4553 3394 4806 3245 
Q 5059 3097 5184 2809 
Q 5275 2597 5275 2122 
L 5275 0 
L 4397 0 
L 4397 1897 
Q 4397 2391 4306 2534 
Q 4184 2722 3931 2722 
Q 3747 2722 3584 2609 
Q 3422 2497 3350 2280 
Q 3278 2063 3278 1594 
L 3278 0 
L 2400 0 
L 2400 1819 
Q 2400 2303 2353 2443 
Q 2306 2584 2207 2653 
Q 2109 2722 1941 2722 
Q 1738 2722 1575 2612 
Q 1413 2503 1342 2297 
Q 1272 2091 1272 1613 
L 1272 0 
L 394 0 
L 394 3319 
z
" transform="scale(0.015625)"/>
      <path id="Arial-BoldMT-61" d="M 1116 2306 
L 319 2450 
Q 453 2931 781 3162 
Q 1109 3394 1756 3394 
Q 2344 3394 2631 3255 
Q 2919 3116 3036 2902 
Q 3153 2688 3153 2116 
L 3144 1091 
Q 3144 653 3186 445 
Q 3228 238 3344 0 
L 2475 0 
Q 2441 88 2391 259 
Q 2369 338 2359 363 
Q 2134 144 1878 34 
Q 1622 -75 1331 -75 
Q 819 -75 523 203 
Q 228 481 228 906 
Q 228 1188 362 1408 
Q 497 1628 739 1745 
Q 981 1863 1438 1950 
Q 2053 2066 2291 2166 
L 2291 2253 
Q 2291 2506 2166 2614 
Q 2041 2722 1694 2722 
Q 1459 2722 1328 2630 
Q 1197 2538 1116 2306 
z
M 2291 1594 
Q 2122 1538 1756 1459 
Q 1391 1381 1278 1306 
Q 1106 1184 1106 997 
Q 1106 813 1243 678 
Q 1381 544 1594 544 
Q 1831 544 2047 700 
Q 2206 819 2256 991 
Q 2291 1103 2291 1419 
L 2291 1594 
z
" transform="scale(0.015625)"/>
      <path id="Arial-BoldMT-6e" d="M 3478 0 
L 2600 0 
L 2600 1694 
Q 2600 2231 2544 2389 
Q 2488 2547 2361 2634 
Q 2234 2722 2056 2722 
Q 1828 2722 1647 2597 
Q 1466 2472 1398 2265 
Q 1331 2059 1331 1503 
L 1331 0 
L 453 0 
L 453 3319 
L 1269 3319 
L 1269 2831 
Q 1703 3394 2363 3394 
Q 2653 3394 2893 3289 
Q 3134 3184 3257 3021 
Q 3381 2859 3429 2653 
Q 3478 2447 3478 2063 
L 3478 0 
z
" transform="scale(0.015625)"/>
      <path id="Arial-BoldMT-63" d="M 3353 2338 
L 2488 2181 
Q 2444 2441 2289 2572 
Q 2134 2703 1888 2703 
Q 1559 2703 1364 2476 
Q 1169 2250 1169 1719 
Q 1169 1128 1367 884 
Q 1566 641 1900 641 
Q 2150 641 2309 783 
Q 2469 925 2534 1272 
L 3397 1125 
Q 3263 531 2881 228 
Q 2500 -75 1859 -75 
Q 1131 -75 698 384 
Q 266 844 266 1656 
Q 266 2478 700 2936 
Q 1134 3394 1875 3394 
Q 2481 3394 2839 3133 
Q 3197 2872 3353 2338 
z
" transform="scale(0.015625)"/>
      <path id="Arial-BoldMT-20" transform="scale(0.015625)"/>
      <path id="Arial-BoldMT-43" d="M 3397 1684 
L 4294 1400 
Q 4088 650 3608 286 
Q 3128 -78 2391 -78 
Q 1478 -78 890 545 
Q 303 1169 303 2250 
Q 303 3394 893 4026 
Q 1484 4659 2447 4659 
Q 3288 4659 3813 4163 
Q 4125 3869 4281 3319 
L 3366 3100 
Q 3284 3456 3026 3662 
Q 2769 3869 2400 3869 
Q 1891 3869 1573 3503 
Q 1256 3138 1256 2319 
Q 1256 1450 1568 1081 
Q 1881 713 2381 713 
Q 2750 713 3015 947 
Q 3281 1181 3397 1684 
z
" transform="scale(0.015625)"/>
      <path id="Arial-BoldMT-70" d="M 434 3319 
L 1253 3319 
L 1253 2831 
Q 1413 3081 1684 3237 
Q 1956 3394 2288 3394 
Q 2866 3394 3269 2941 
Q 3672 2488 3672 1678 
Q 3672 847 3265 386 
Q 2859 -75 2281 -75 
Q 2006 -75 1782 34 
Q 1559 144 1313 409 
L 1313 -1263 
L 434 -1263 
L 434 3319 
z
M 1303 1716 
Q 1303 1156 1525 889 
Q 1747 622 2066 622 
Q 2372 622 2575 867 
Q 2778 1113 2778 1672 
Q 2778 2194 2568 2447 
Q 2359 2700 2050 2700 
Q 1728 2700 1515 2451 
Q 1303 2203 1303 1716 
z
" transform="scale(0.015625)"/>
      <path id="Arial-BoldMT-69" d="M 459 3769 
L 459 4581 
L 1338 4581 
L 1338 3769 
L 459 3769 
z
M 459 0 
L 459 3319 
L 1338 3319 
L 1338 0 
L 459 0 
z
" transform="scale(0.015625)"/>
      <path id="Arial-BoldMT-73" d="M 150 947 
L 1031 1081 
Q 1088 825 1259 692 
Q 1431 559 1741 559 
Q 2081 559 2253 684 
Q 2369 772 2369 919 
Q 2369 1019 2306 1084 
Q 2241 1147 2013 1200 
Q 950 1434 666 1628 
Q 272 1897 272 2375 
Q 272 2806 612 3100 
Q 953 3394 1669 3394 
Q 2350 3394 2681 3172 
Q 3013 2950 3138 2516 
L 2309 2363 
Q 2256 2556 2107 2659 
Q 1959 2763 1684 2763 
Q 1338 2763 1188 2666 
Q 1088 2597 1088 2488 
Q 1088 2394 1175 2328 
Q 1294 2241 1995 2081 
Q 2697 1922 2975 1691 
Q 3250 1456 3250 1038 
Q 3250 581 2869 253 
Q 2488 -75 1741 -75 
Q 1063 -75 667 200 
Q 272 475 150 947 
z
" transform="scale(0.015625)"/>
      <path id="Arial-BoldMT-3a" d="M 628 2441 
L 628 3319 
L 1506 3319 
L 1506 2441 
L 628 2441 
z
M 628 0 
L 628 878 
L 1506 878 
L 1506 0 
L 628 0 
z
" transform="scale(0.015625)"/>
      <path id="Arial-BoldMT-44" d="M 463 4581 
L 2153 4581 
Q 2725 4581 3025 4494 
Q 3428 4375 3715 4072 
Q 4003 3769 4153 3330 
Q 4303 2891 4303 2247 
Q 4303 1681 4163 1272 
Q 3991 772 3672 463 
Q 3431 228 3022 97 
Q 2716 0 2203 0 
L 463 0 
L 463 4581 
z
M 1388 3806 
L 1388 772 
L 2078 772 
Q 2466 772 2638 816 
Q 2863 872 3011 1006 
Q 3159 1141 3253 1448 
Q 3347 1756 3347 2288 
Q 3347 2819 3253 3103 
Q 3159 3388 2990 3547 
Q 2822 3706 2563 3763 
Q 2369 3806 1803 3806 
L 1388 3806 
z
" transform="scale(0.015625)"/>
      <path id="Arial-BoldMT-79" d="M 44 3319 
L 978 3319 
L 1772 963 
L 2547 3319 
L 3456 3319 
L 2284 125 
L 2075 -453 
Q 1959 -744 1854 -897 
Q 1750 -1050 1614 -1145 
Q 1478 -1241 1279 -1294 
Q 1081 -1347 831 -1347 
Q 578 -1347 334 -1294 
L 256 -606 
Q 463 -647 628 -647 
Q 934 -647 1081 -467 
Q 1228 -288 1306 -9 
L 44 3319 
z
" transform="scale(0.015625)"/>
      <path id="Arial-BoldMT-76" d="M 1372 0 
L 34 3319 
L 956 3319 
L 1581 1625 
L 1763 1059 
Q 1834 1275 1853 1344 
Q 1897 1484 1947 1625 
L 2578 3319 
L 3481 3319 
L 2163 0 
L 1372 0 
z
" transform="scale(0.015625)"/>
      <path id="Arial-BoldMT-55" d="M 459 4581 
L 1384 4581 
L 1384 2100 
Q 1384 1509 1419 1334 
Q 1478 1053 1701 883 
Q 1925 713 2313 713 
Q 2706 713 2906 873 
Q 3106 1034 3147 1268 
Q 3188 1503 3188 2047 
L 3188 4581 
L 4113 4581 
L 4113 2175 
Q 4113 1350 4038 1009 
Q 3963 669 3761 434 
Q 3559 200 3221 61 
Q 2884 -78 2341 -78 
Q 1684 -78 1345 73 
Q 1006 225 809 467 
Q 613 709 550 975 
Q 459 1369 459 2138 
L 459 4581 
z
" transform="scale(0.015625)"/>
      <path id="Arial-BoldMT-41" d="M 4597 0 
L 3591 0 
L 3191 1041 
L 1359 1041 
L 981 0 
L 0 0 
L 1784 4581 
L 2763 4581 
L 4597 0 
z
M 2894 1813 
L 2263 3513 
L 1644 1813 
L 2894 1813 
z
" transform="scale(0.015625)"/>
     </defs>
     <use xlink:href="#Arial-BoldMT-50"/>
     <use xlink:href="#Arial-BoldMT-65" transform="translate(66.699219 0)"/>
     <use xlink:href="#Arial-BoldMT-72" transform="translate(122.314453 0)"/>
     <use xlink:href="#Arial-BoldMT-66" transform="translate(161.230469 0)"/>
     <use xlink:href="#Arial-BoldMT-6f" transform="translate(194.53125 0)"/>
     <use xlink:href="#Arial-BoldMT-72" transform="translate(255.615234 0)"/>
     <use xlink:href="#Arial-BoldMT-6d" transform="translate(294.53125 0)"/>
     <use xlink:href="#Arial-BoldMT-61" transform="translate(383.447266 0)"/>
     <use xlink:href="#Arial-BoldMT-6e" transform="translate(439.0625 0)"/>
     <use xlink:href="#Arial-BoldMT-63" transform="translate(500.146484 0)"/>
     <use xlink:href="#Arial-BoldMT-65" transform="translate(555.761719 0)"/>
     <use xlink:href="#Arial-BoldMT-20" transform="translate(611.376953 0)"/>
     <use xlink:href="#Arial-BoldMT-43" transform="translate(639.160156 0)"/>
     <use xlink:href="#Arial-BoldMT-6f" transform="translate(711.376953 0)"/>
     <use xlink:href="#Arial-BoldMT-6d" transform="translate(772.460938 0)"/>
     <use xlink:href="#Arial-BoldMT-70" transform="translate(861.376953 0)"/>
     <use xlink:href="#Arial-BoldMT-61" transform="translate(922.460938 0)"/>
     <use xlink:href="#Arial-BoldMT-72" transform="translate(978.076172 0)"/>
     <use xlink:href="#Arial-BoldMT-69" transform="translate(1016.992188 0)"/>
     <use xlink:href="#Arial-BoldMT-73" transform="translate(1044.775391 0)"/>
     <use xlink:href="#Arial-BoldMT-6f" transform="translate(1100.390625 0)"/>
     <use xlink:href="#Arial-BoldMT-6e" transform="translate(1161.474609 0)"/>
     <use xlink:href="#Arial-BoldMT-3a" transform="translate(1222.558594 0)"/>
     <use xlink:href="#Arial-BoldMT-20" transform="translate(1255.859375 0)"/>
     <use xlink:href="#Arial-BoldMT-44" transform="translate(1283.642578 0)"/>
     <use xlink:href="#Arial-BoldMT-79" transform="translate(1355.859375 0)"/>
     <use xlink:href="#Arial-BoldMT-6e" transform="translate(1411.474609 0)"/>
     <use xlink:href="#Arial-BoldMT-61" transform="translate(1472.558594 0)"/>
     <use xlink:href="#Arial-BoldMT-6d" transform="translate(1528.173828 0)"/>
     <use xlink:href="#Arial-BoldMT-69" transform="translate(1617.089844 0)"/>
     <use xlink:href="#Arial-BoldMT-63" transform="translate(1644.873047 0)"/>
     <use xlink:href="#Arial-BoldMT-20" transform="translate(1700.488281 0)"/>
     <use xlink:href="#Arial-BoldMT-76" transform="translate(1728.271484 0)"/>
     <use xlink:href="#Arial-BoldMT-73" transform="translate(1783.886719 0)"/>
     <use xlink:href="#Arial-BoldMT-20" transform="translate(1839.501953 0)"/>
     <use xlink:href="#Arial-BoldMT-55" transform="translate(1867.285156 0)"/>
     <use xlink:href="#Arial-BoldMT-6e" transform="translate(1939.501953 0)"/>
     <use xlink:href="#Arial-BoldMT-69" transform="translate(2000.585938 0)"/>
     <use xlink:href="#Arial-BoldMT-66" transform="translate(2028.369141 0)"/>
     <use xlink:href="#Arial-BoldMT-6f" transform="translate(2061.669922 0)"/>
     <use xlink:href="#Arial-BoldMT-72" transform="translate(2122.753906 0)"/>
     <use xlink:href="#Arial-BoldMT-6d" transform="translate(2161.669922 0)"/>
     <use xlink:href="#Arial-BoldMT-20" transform="translate(2250.585938 0)"/>
     <use xlink:href="#Arial-BoldMT-44" transform="translate(2278.369141 0)"/>
     <use xlink:href="#Arial-BoldMT-43" transform="translate(2350.585938 0)"/>
     <use xlink:href="#Arial-BoldMT-41" transform="translate(2422.802734 0)"/>
    </g>
   </g>
   <g id="legend_1">
    <g id="patch_7">
     <path d="M 748.179375 74.305625 
L 842.966875 74.305625 
Q 844.966875 74.305625 844.966875 72.305625 
L 844.966875 30.391562 
Q 844.966875 28.391562 842.966875 28.391562 
L 748.179375 28.391562 
Q 746.179375 28.391562 746.179375 30.391562 
L 746.179375 72.305625 
Q 746.179375 74.305625 748.179375 74.305625 
z
" style="fill: #ffffff; opacity: 0.8; stroke: #cccccc; stroke-linejoin: miter"/>
    </g>
    <g id="text_17">
     <!-- Strategy -->
     <g style="fill: #262626" transform="translate(776.953594 39.67125) scale(0.1 -0.1)">
      <defs>
       <path id="ArialMT-67" d="M 319 -275 
L 866 -356 
Q 900 -609 1056 -725 
Q 1266 -881 1628 -881 
Q 2019 -881 2231 -725 
Q 2444 -569 2519 -288 
Q 2563 -116 2559 434 
Q 2191 0 1641 0 
Q 956 0 581 494 
Q 206 988 206 1678 
Q 206 2153 378 2554 
Q 550 2956 876 3175 
Q 1203 3394 1644 3394 
Q 2231 3394 2613 2919 
L 2613 3319 
L 3131 3319 
L 3131 450 
Q 3131 -325 2973 -648 
Q 2816 -972 2473 -1159 
Q 2131 -1347 1631 -1347 
Q 1038 -1347 672 -1080 
Q 306 -813 319 -275 
z
M 784 1719 
Q 784 1066 1043 766 
Q 1303 466 1694 466 
Q 2081 466 2343 764 
Q 2606 1063 2606 1700 
Q 2606 2309 2336 2618 
Q 2066 2928 1684 2928 
Q 1309 2928 1046 2623 
Q 784 2319 784 1719 
z
" transform="scale(0.015625)"/>
       <path id="ArialMT-79" d="M 397 -1278 
L 334 -750 
Q 519 -800 656 -800 
Q 844 -800 956 -737 
Q 1069 -675 1141 -563 
Q 1194 -478 1313 -144 
Q 1328 -97 1363 -6 
L 103 3319 
L 709 3319 
L 1400 1397 
Q 1534 1031 1641 628 
Q 1738 1016 1872 1384 
L 2581 3319 
L 3144 3319 
L 1881 -56 
Q 1678 -603 1566 -809 
Q 1416 -1088 1222 -1217 
Q 1028 -1347 759 -1347 
Q 597 -1347 397 -1278 
z
" transform="scale(0.015625)"/>
      </defs>
      <use xlink:href="#ArialMT-53"/>
      <use xlink:href="#ArialMT-74" transform="translate(66.699219 0)"/>
      <use xlink:href="#ArialMT-72" transform="translate(94.482422 0)"/>
      <use xlink:href="#ArialMT-61" transform="translate(127.783203 0)"/>
      <use xlink:href="#ArialMT-74" transform="translate(183.398438 0)"/>
      <use xlink:href="#ArialMT-65" transform="translate(211.181641 0)"/>
      <use xlink:href="#ArialMT-67" transform="translate(266.796875 0)"/>
      <use xlink:href="#ArialMT-79" transform="translate(322.412109 0)"/>
     </g>
    </g>
    <g id="line2d_18">
     <path d="M 750.179375 50.555625 
L 760.179375 50.555625 
L 770.179375 50.555625 
" style="fill: none; stroke: #f77189; stroke-width: 2.5; stroke-linecap: round"/>
    </g>
    <g id="text_18">
     <!-- Dynamic DCA -->
     <g style="fill: #262626" transform="translate(778.179375 54.055625) scale(0.1 -0.1)">
      <defs>
       <path id="ArialMT-6d" d="M 422 0 
L 422 3319 
L 925 3319 
L 925 2853 
Q 1081 3097 1340 3245 
Q 1600 3394 1931 3394 
Q 2300 3394 2536 3241 
Q 2772 3088 2869 2813 
Q 3263 3394 3894 3394 
Q 4388 3394 4653 3120 
Q 4919 2847 4919 2278 
L 4919 0 
L 4359 0 
L 4359 2091 
Q 4359 2428 4304 2576 
Q 4250 2725 4106 2815 
Q 3963 2906 3769 2906 
Q 3419 2906 3187 2673 
Q 2956 2441 2956 1928 
L 2956 0 
L 2394 0 
L 2394 2156 
Q 2394 2531 2256 2718 
Q 2119 2906 1806 2906 
Q 1569 2906 1367 2781 
Q 1166 2656 1075 2415 
Q 984 2175 984 1722 
L 984 0 
L 422 0 
z
" transform="scale(0.015625)"/>
       <path id="ArialMT-43" d="M 3763 1606 
L 4369 1453 
Q 4178 706 3683 314 
Q 3188 -78 2472 -78 
Q 1731 -78 1267 223 
Q 803 525 561 1097 
Q 319 1669 319 2325 
Q 319 3041 592 3573 
Q 866 4106 1370 4382 
Q 1875 4659 2481 4659 
Q 3169 4659 3637 4309 
Q 4106 3959 4291 3325 
L 3694 3184 
Q 3534 3684 3231 3912 
Q 2928 4141 2469 4141 
Q 1941 4141 1586 3887 
Q 1231 3634 1087 3207 
Q 944 2781 944 2328 
Q 944 1744 1114 1308 
Q 1284 872 1643 656 
Q 2003 441 2422 441 
Q 2931 441 3284 734 
Q 3638 1028 3763 1606 
z
" transform="scale(0.015625)"/>
       <path id="ArialMT-41" d="M -9 0 
L 1750 4581 
L 2403 4581 
L 4278 0 
L 3588 0 
L 3053 1388 
L 1138 1388 
L 634 0 
L -9 0 
z
M 1313 1881 
L 2866 1881 
L 2388 3150 
Q 2169 3728 2063 4100 
Q 1975 3659 1816 3225 
L 1313 1881 
z
" transform="scale(0.015625)"/>
      </defs>
      <use xlink:href="#ArialMT-44"/>
      <use xlink:href="#ArialMT-79" transform="translate(72.216797 0)"/>
      <use xlink:href="#ArialMT-6e" transform="translate(122.216797 0)"/>
      <use xlink:href="#ArialMT-61" transform="translate(177.832031 0)"/>
      <use xlink:href="#ArialMT-6d" transform="translate(233.447266 0)"/>
      <use xlink:href="#ArialMT-69" transform="translate(316.748047 0)"/>
      <use xlink:href="#ArialMT-63" transform="translate(338.964844 0)"/>
      <use xlink:href="#ArialMT-20" transform="translate(388.964844 0)"/>
      <use xlink:href="#ArialMT-44" transform="translate(416.748047 0)"/>
      <use xlink:href="#ArialMT-43" transform="translate(488.964844 0)"/>
      <use xlink:href="#ArialMT-41" transform="translate(561.181641 0)"/>
     </g>
    </g>
    <g id="line2d_19">
     <path d="M 750.179375 64.818125 
L 760.179375 64.818125 
L 770.179375 64.818125 
" style="fill: none; stroke-dasharray: 10,3.75; stroke-dashoffset: 0; stroke: #bb9832; stroke-width: 2.5"/>
    </g>
    <g id="text_19">
     <!-- Uniform DCA -->
     <g style="fill: #262626" transform="translate(778.179375 68.318125) scale(0.1 -0.1)">
      <defs>
       <path id="ArialMT-55" d="M 3500 4581 
L 4106 4581 
L 4106 1934 
Q 4106 1244 3950 837 
Q 3794 431 3386 176 
Q 2978 -78 2316 -78 
Q 1672 -78 1262 144 
Q 853 366 678 786 
Q 503 1206 503 1934 
L 503 4581 
L 1109 4581 
L 1109 1938 
Q 1109 1341 1220 1058 
Q 1331 775 1601 622 
Q 1872 469 2263 469 
Q 2931 469 3215 772 
Q 3500 1075 3500 1938 
L 3500 4581 
z
" transform="scale(0.015625)"/>
       <path id="ArialMT-66" d="M 556 0 
L 556 2881 
L 59 2881 
L 59 3319 
L 556 3319 
L 556 3672 
Q 556 4006 616 4169 
Q 697 4388 901 4523 
Q 1106 4659 1475 4659 
Q 1713 4659 2000 4603 
L 1916 4113 
Q 1741 4144 1584 4144 
Q 1328 4144 1222 4034 
Q 1116 3925 1116 3625 
L 1116 3319 
L 1763 3319 
L 1763 2881 
L 1116 2881 
L 1116 0 
L 556 0 
z
" transform="scale(0.015625)"/>
      </defs>
      <use xlink:href="#ArialMT-55"/>
      <use xlink:href="#ArialMT-6e" transform="translate(72.216797 0)"/>
      <use xlink:href="#ArialMT-69" transform="translate(127.832031 0)"/>
      <use xlink:href="#ArialMT-66" transform="translate(150.048828 0)"/>
      <use xlink:href="#ArialMT-6f" transform="translate(177.832031 0)"/>
      <use xlink:href="#ArialMT-72" transform="translate(233.447266 0)"/>
      <use xlink:href="#ArialMT-6d" transform="translate(266.748047 0)"/>
      <use xlink:href="#ArialMT-20" transform="translate(350.048828 0)"/>
      <use xlink:href="#ArialMT-44" transform="translate(377.832031 0)"/>
      <use xlink:href="#ArialMT-43" transform="translate(450.048828 0)"/>
      <use xlink:href="#ArialMT-41" transform="translate(522.265625 0)"/>
     </g>
    </g>
   </g>
  </g>
 </g>
 <defs>
  <clipPath id="pe5357325ff">
   <rect x="40.583125" y="23.391562" width="809.38375" height="339.363763"/>
  </clipPath>
 </defs>
</svg>
